<svg xmlns="http://www.w3.org/2000/svg" width="520" height="320"><rect x="0" y="0" width="520" height="320" fill="floralwhite"/><rect x="10" y="10" width="500" height="300" stroke="black" stroke-width="1" fill="none"/><path stroke="black" stroke-width="1" fill="none" stroke-linecap="round" stroke-linejoin="round" d="
M 149.97 89.89 149.97 89.89 159.95 88.3 169.93 87.25 179.91 86.94 189.89 87.03 199.87 87.11 209.84 87.21 219.82 87.6 229.8 88.53 239.78 90.23 249.76 92.6 259.74 95.3 269.72 98.12 279.69 100.94 289.67 103.48 299.65 105.53 309.63 106.98 319.61 107.97 329.59 108.69 339.57 109.33 349.54 109.93 359.52 110.5 369.5 110.96 379.48 111.45 389.46 112.2 399.44 113.21 400.36 113.5 
M 400.36 223.44 399.44 224.24 389.46 228.28 379.48 231.18 369.5 233.19 359.52 234.91 349.54 236.82 339.57 238.76 329.59 240.37 319.61 241.31 309.63 241.82 299.65 242.19 289.67 242.73 279.69 243.74 269.72 244.93 259.74 245.75 249.76 246.24 239.78 246.5 229.8 246.38 219.82 245.55 209.84 244.01 199.87 242.53 189.89 241.42 179.91 240.05 169.93 238.52 159.98 237.01 
M 160.93 154.11 168.09 151.38 
M 161.7 158.62 167.61 158.33 
M 161.41 163.05 167.65 165.79 
M 168.21 215.5 166.9 214.25 
M 166.9 214.25 168.21 215.5 
M 165.98 192.86 172.45 191.56 
M 166.39 197.27 172.39 197.4 
M 166.61 201 172.18 202.57 
M 151.56 92.74 160.87 91.56 
M 153.34 95.89 160.28 96.33 
M 154.78 99.41 160.57 100.51 
M 162.06 152.02 160.1 150.4 
M 160.1 150.4 162.06 152.02 
M 160.87 127.21 167.34 125.65 
M 161.04 131.37 167.6 131.9 
M 161.05 136.45 167.89 137.92 
M 172.58 195.46 169.68 192.64 165.97 185.41 165.08 182.38 
M 165.08 182.38 165.97 185.41 169.68 192.64 172.58 195.46 
M 173.31 209.54 181.57 207.32 
M 173.48 213 182.1 212.93 
M 164.53 94.69 161.17 93.32 156.87 89.82 156.22 88.9 
M 156.22 88.9 156.87 89.82 161.17 93.32 164.53 94.69 
M 169.15 87.33 170.17 87.48 
M 163.43 125.15 160.32 123.23 
M 160.32 123.23 163.43 125.15 
M 159.76 104.64 169.79 102.1 
M 159.86 107.99 169.5 107.63 
M 159.58 111.58 169.21 112.69 
M 173.54 167.76 171.79 163.2 169.96 154.79 169.96 154.79 171.79 163.2 173.54 167.76 
M 174.92 148.36 180.04 145.69 
M 175.03 152.65 180.79 152.54 
M 174.46 156.85 180.4 159.03 
M 181.47 210.85 179.2 208.14 176.28 201.18 174.41 193.29 174.41 193.29 176.28 201.18 179.2 208.14 181.47 210.85 
M 178.82 190.57 180.37 190.61 
M 179.52 195.03 185.34 197.11 
M 176.8 112.62 172.4 110.83 166.76 106.25 163.13 101.06 163.13 101.06 166.76 106.25 172.4 110.83 176.8 112.62 
M 172.47 96.69 184.06 95.27 
M 172.46 99.91 184.17 99.44 
M 172.99 101.96 184.23 103.62 
M 179.42 146.49 175.72 144.19 170.98 138.31 167.92 131.64 167.92 131.64 170.98 138.31 175.72 144.19 179.42 146.49 
M 175.82 126.33 185.82 124.27 
M 176 129.4 185.83 129.95 
M 175.73 132.7 185.46 134.71 
M 180.83 161.58 187.5 159.76 
M 180.04 165.21 180.33 165.24 
M 183.59 217.52 181.28 210.23 181.28 210.23 183.59 217.52 
M 188.16 203.47 195.8 201.9 
M 188.4 207.29 195.95 208.13 
M 187.57 212 196.21 213.76 
M 187.39 99.99 183.98 98.39 179.6 94.32 176.78 89.7 176.78 89.7 179.6 94.32 183.98 98.39 187.39 99.99 
M 184.23 88.48 192.5 88 
M 184.05 90.25 193.02 91.41 
M 191.86 130.67 187.78 128.83 182.56 124.12 179.2 118.79 179.2 118.79 182.56 124.12 187.78 128.83 191.86 130.67 
M 187.89 114.66 198.55 113.38 
M 187.85 116.8 198.13 116.87 
M 188.12 120.17 198.65 121.53 
M 185.54 156.62 183.32 154.52 180.47 149.16 178.63 143.09 178.63 143.09 180.47 149.16 183.32 154.52 185.54 156.62 
M 183.55 138.51 188.8 136.23 
M 183.67 141.19 188.82 141.46 
M 183.55 144.13 189.06 145.89 
M 188.23 201.04 185.81 197.89 183.51 191.89 
M 183.51 191.89 185.81 197.89 188.23 201.04 
M 197.15 89.26 193.19 88.08 191.46 87.04 
M 191.46 87.04 193.19 88.08 197.15 89.26 
M 200.41 116.39 196.3 114.69 191.04 110.33 187.64 105.38 187.64 105.38 191.04 110.33 196.3 114.69 200.41 116.39 
M 196.51 101.19 207.23 100.44 
M 196.9 103.97 206.97 104.11 
M 196.32 106.52 207.43 107.34 
M 197.58 142.71 193.75 140.76 188.86 135.77 185.7 130.11 185.7 130.11 188.86 135.77 193.75 140.76 197.58 142.71 
M 194.2 125.59 203.62 123.93 
M 194.32 128.49 203.69 128.01 
M 193.55 131.3 203.32 132.42 
M 185.66 164.86 183.74 159.53 183.74 159.53 185.66 164.86 
M 190.5 153.25 199.74 151.41 
M 190.53 157.23 199.33 156.96 
M 190.54 160.87 195.01 161.91 
M 200.63 219.31 198.41 215.11 195.66 205.99 195.66 205.99 198.41 215.11 200.63 219.31 
M 202.96 203.27 211.3 203.41 
M 202.5 207.43 210.89 210.52 
M 208.17 101.59 205 99.98 200.94 95.86 198.32 91.2 198.32 91.2 200.94 95.86 205 99.98 208.17 101.59 
M 205.12 87.83 209.45 87.21 
M 205.34 89.96 212.87 89.68 
M 204.74 92.33 213.23 93.17 
M 214.2 133.34 211.17 131.56 207.28 127 204.78 121.84 204.78 121.84 207.28 127 211.17 131.56 214.2 133.34 
M 210.82 117.67 219.43 115.92 
M 211.54 120.06 218.63 120.44 
M 211.16 122.79 219.28 124.44 
M 198.71 150.21 195.3 148.12 190.92 142.78 188.1 136.72 188.1 136.72 190.92 142.78 195.3 148.12 198.71 150.21 
M 195.33 131.61 203.91 130.29 
M 195.32 134.82 204.63 134.95 
M 195.14 138.26 204.29 139.8 
M 217.26 90.07 213.54 88.89 210.96 87.26 
M 210.96 87.26 213.54 88.89 217.26 90.07 
M 220.22 116.78 216.69 115.09 212.16 110.77 209.25 105.87 209.25 105.87 212.16 110.77 216.69 115.09 220.22 116.78 
M 216.98 101.5 225.85 100.79 
M 216.48 104.5 226.12 104.22 
M 216.86 107.3 225.84 108.32 
M 217.49 143.35 213.37 141.39 208.1 136.38 204.7 130.71 204.7 130.71 208.1 136.38 213.37 141.39 217.49 143.35 
M 213.83 125.66 224.45 124.98 
M 213.38 129.37 224.29 128.8 
M 213.5 131.74 224.52 133.01 
M 200.51 160.66 200.43 160.49 200.43 160.49 200.51 160.66 
M 210.18 154.3 221.57 152.89 
M 222.13 222.05 220.55 220.77 215.9 213.22 212.9 204.65 212.9 204.65 215.9 213.22 220.55 220.77 222.13 222.05 
M 220.48 206.79 230.27 208.39 
M 228.15 101.8 225.21 100.26 221.46 96.3 219.03 91.81 219.03 91.81 221.46 96.3 225.21 100.26 228.15 101.8 
M 225.26 90.25 232.42 90.48 
M 225.5 92.56 232.55 93.49 
M 230.36 130.39 227.73 128.57 224.35 123.9 222.17 118.61 222.17 118.61 224.35 123.9 227.73 128.57 230.36 130.39 
M 228.01 113.9 234.92 112.91 
M 227.91 116.73 234.97 117 
M 228.06 119.35 234.6 120.93 
M 220.83 156.2 216.09 151.85 212.26 145.66 212.26 145.66 216.09 151.85 220.83 156.2 
M 221.73 140.3 234.34 139.24 
M 222.5 143.57 233.68 143.44 
M 221.97 146.54 234.47 148.19 
M 236.68 220.34 243.38 219.05 
M 238.02 115.53 234.38 113.79 229.72 109.35 226.72 104.32 226.72 104.32 229.72 109.35 234.38 113.79 238.02 115.53 
M 234.89 100.54 243.71 99.22 
M 234.53 103.05 243.48 102.67 
M 234.26 105.19 243.5 106.25 
M 240.05 148.12 235.6 145.97 229.92 140.46 226.25 134.21 226.25 134.21 229.92 140.46 235.6 145.97 240.05 148.12 
M 235.3 128.79 247.24 127.21 
M 236.01 132.2 247.14 131.91 
M 235.54 135.08 247.13 137.36 
M 243.85 219.88 240.06 217.49 235.22 211.39 233.22 206.98 
M 233.22 206.98 235.22 211.39 240.06 217.49 243.85 219.88 
M 245.87 98.61 242.64 97.27 238.51 93.84 235.85 89.96 235.85 89.96 238.51 93.84 242.64 97.27 245.87 98.61 
M 247.69 131.3 244.37 129.08 240.11 123.37 237.36 116.91 237.36 116.91 240.11 123.37 244.37 129.08 247.69 131.3 
M 244.16 111.8 253.3 109.72 
M 244.7 114.58 252.92 115.32 
M 244.08 117.97 253.35 120.09 
M 251.09 150 262.64 148.05 
M 252.3 153.82 262.22 153.34 
M 260.83 158.51 262.61 158.86 
M 247.39 223.16 246.9 221.76 246.9 221.76 247.39 223.16 
M 252.22 217.37 258.4 215.88 
M 251.49 219.76 258.22 220.21 
M 251.59 222.45 253.77 223.19 
M 258.8 117.52 254.66 115.72 249.34 111.11 245.92 105.88 245.92 105.88 249.34 111.11 254.66 115.72 258.8 117.52 
M 255.17 101.6 265.32 100.28 
M 254.7 104.25 265.03 104.49 
M 254.69 106.6 265.88 108.43 
M 263.6 153.7 259.15 151.38 253.46 145.44 249.78 138.72 249.78 138.72 253.46 145.44 259.15 151.38 263.6 153.7 
M 259.29 132.99 270.99 131.11 
M 259.18 136.72 271.11 136.46 
M 258.86 140.28 270.83 141.41 
M 263.31 216.74 259.68 214.8 255.67 210.53 
M 255.67 210.53 259.68 214.8 263.31 216.74 
M 265.25 206.34 269.2 207.04 
M 251.86 223.19 259.11 221.7 
M 269.23 103.33 265.54 101.92 260.82 98.29 258.31 94.92 
M 258.31 94.92 260.82 98.29 265.54 101.92 269.23 103.33 
M 272.43 136.85 268.84 134.63 264.24 128.93 261.28 122.48 261.28 122.48 264.24 128.93 268.84 134.63 272.43 136.85 
M 268.67 117.57 278.37 115.32 
M 269.2 120.64 278.59 120.38 
M 268.55 123.75 278.15 125.46 
M 278.82 175.3 276.01 173.49 
M 268.1 161.61 267.3 159.81 267.3 159.81 268.1 161.61 
M 276.01 173.49 278.82 175.3 
M 275.01 154.17 285.03 152.78 
M 275.31 157.45 284.8 157.63 
M 275.36 161.36 284.67 162.6 
M 277.81 205.11 274.22 203.13 273.98 202.87 
M 273.98 202.87 274.22 203.13 277.81 205.11 
M 281.68 186.27 283.76 185.95 
M 264.7 223.05 262.55 219.96 260.71 215.33 260.71 215.33 262.55 219.96 264.7 223.05 
M 265.16 211.79 271.44 210.23 
M 265.37 214.13 271.58 213.49 
M 265.22 216.02 271.48 217.12 
M 281.88 121.38 277.68 119.58 272.31 114.97 268.84 109.74 268.84 109.74 272.31 114.97 277.68 119.58 281.88 121.38 
M 277.58 105.27 288.32 104.02 
M 277.67 108.1 288.89 107.82 
M 277.83 111.22 288.7 112.48 
M 286.72 157.67 282.56 155.34 277.22 149.38 273.78 142.64 273.78 142.64 277.22 149.38 282.56 155.34 286.72 157.67 
M 283.11 137.08 293.38 135.28 
M 282.93 140.36 293.83 140.71 
M 283.06 143.96 293.48 146 
M 289.56 191.73 285.41 189.55 281.39 185.35 
M 281.39 185.35 285.41 189.55 289.56 191.73 
M 285.92 172.33 296.29 170.99 
M 285.57 175.38 295.9 175.62 
M 285.73 178.53 295.9 180.62 
M 280.52 213.45 277.09 211.67 272.7 207.08 271.11 204.16 
M 271.11 204.16 272.7 207.08 277.09 211.67 280.52 213.45 
M 284.46 196.65 285.67 196.49 
M 279.92 200.17 286.05 200.3 
M 277.18 203.29 286.41 204.3 
M 259.67 223.18 258.46 220.88 258.46 220.88 259.67 223.18 
M 265.18 217.21 272.99 215.53 
M 265.03 219.83 272.39 219.5 
M 264.96 222.27 270.35 222.87 
M 292.63 106.84 289.06 105.52 284.59 102.19 
M 284.59 102.19 289.06 105.52 292.63 106.84 
M 293.23 138.5 290.08 136.26 286.05 130.51 283.45 124.01 283.45 124.01 286.05 130.51 290.08 136.26 293.23 138.5 
M 290.05 118.64 298.04 116.89 
M 290.47 121.99 298.03 121.75 
M 290.41 124.99 298.19 127.02 
M 302.42 180.02 298.97 177.58 294.57 171.32 291.72 164.24 291.72 164.24 294.57 171.32 298.97 177.58 302.42 180.02 
M 299.15 158.52 307.6 156.49 
M 299.35 161.67 308.02 162.37 
M 299.34 166.05 308.04 167.45 
M 299.21 206.49 296.1 204.61 292.11 199.79 289.54 194.34 289.54 194.34 292.11 199.79 296.1 204.61 299.21 206.49 
M 295.76 189.95 304.18 188.31 
M 296.16 192.47 304.52 192.91 
M 296.31 195.18 304.37 196.91 
M 277.45 216.58 274.95 214.88 271.75 210.54 269.68 205.62 269.68 205.62 271.75 210.54 274.95 214.88 277.45 216.58 
M 279.39 200.55 281.03 200.19 
M 274.92 204.17 281.79 203.84 
M 275.11 206.51 281.76 208.27 
M 303.32 123.28 299.29 121.52 294.13 117 290.8 111.89 290.8 111.89 294.13 117 299.29 121.52 303.32 123.28 
M 299.03 107.59 308.95 106.88 
M 299.8 109.87 310.21 109.85 
M 299.37 112.5 309.69 113.87 
M 307.81 159.45 303.96 157.13 299.03 151.18 295.85 144.44 295.85 144.44 299.03 151.18 303.96 157.13 307.81 159.45 
M 304.14 139.34 314.42 137.58 
M 303.94 142.38 313.67 142.64 
M 304.46 145.4 313.86 147.75 
M 310.53 193.17 306.85 191.03 302.14 185.54 299.1 179.32 299.1 179.32 302.14 185.54 306.85 191.03 310.53 193.17 
M 306.66 173.93 316.86 172.81 
M 307.12 177.72 316.04 177.63 
M 306.64 180.83 316.68 182.08 
M 297.55 211.02 293.83 209.24 289.06 204.68 285.98 199.51 285.98 199.51 289.06 204.68 293.83 209.24 297.55 211.02 
M 294 195.65 303.84 194.05 
M 294.25 197.94 303.74 198.1 
M 294.29 200.22 303.76 202.07 
M 275.35 222.58 272.28 217.61 272.28 217.61 275.35 222.58 
M 279.98 213.38 290.08 212.7 
M 280.5 216.02 289.61 216.14 
M 280.06 218.52 289.81 220.06 
M 314.54 109.32 311.12 108.03 309.76 106.99 
M 309.76 106.99 311.12 108.03 314.54 109.32 
M 312.9 138.46 309.59 136.27 305.34 130.66 302.61 124.31 302.61 124.31 305.34 130.66 309.59 136.27 312.9 138.46 
M 309.3 118.73 317.77 117.89 
M 309.49 122.27 318.69 121.89 
M 309.39 125.58 318.38 126.76 
M 322.7 180.81 319.76 178.4 316 172.21 313.57 165.2 313.57 165.2 316 172.21 319.76 178.4 322.7 180.81 
M 319.76 159.86 327.85 157.97 
M 319.99 163.41 327.31 162.88 
M 319.46 166.67 327.19 168.09 
M 317.79 205.36 315.02 203.53 311.47 198.83 309.18 193.51 309.18 193.51 311.47 198.83 315.02 203.53 317.79 205.36 
M 314.75 189.15 322.08 187.97 
M 314.88 191.98 322.24 191.42 
M 315.42 194.93 322.18 195.48 
M 295.75 215.66 291.72 213.95 286.56 209.55 283.23 204.57 283.23 204.57 286.56 209.55 291.72 213.95 295.75 215.66 
M 291.48 200.71 302.48 199.32 
M 291.85 202.65 302.7 202.63 
M 291.73 205.79 302.51 206.74 
M 324.85 125.42 320.88 123.67 315.8 119.2 312.53 114.13 312.53 114.13 315.8 119.2 320.88 123.67 324.85 125.42 
M 320.81 109.83 330.85 108.85 
M 320.91 112.56 331.51 112.56 
M 321.17 115.21 331.53 116.59 
M 327.83 159.25 324.08 157.05 319.28 151.42 316.18 145.04 316.18 145.04 319.28 151.42 324.08 157.05 327.83 159.25 
M 324.22 139.43 334.07 138.07 
M 324.11 142.83 334.26 142.67 
M 324.58 146.11 334.27 148.17 
M 328.83 191.66 325.32 189.58 320.84 184.24 317.94 178.2 317.94 178.2 320.84 184.24 325.32 189.58 328.83 191.66 
M 325.07 172.86 334.36 171.91 
M 325.49 176.43 334.35 176.79 
M 325.35 179.52 334.07 180.56 
M 318.81 212.94 314.3 211.17 308.52 206.63 304.8 201.49 304.8 201.49 308.52 206.63 314.3 211.17 318.81 212.94 
M 314.22 196.87 325.77 196.44 
M 314.59 199.62 325.64 199.83 
M 314.67 202.46 325.75 204.06 
M 292.15 221.81 291.26 220.71 291.26 220.71 292.15 221.81 
M 301.26 216.64 313.99 215.93 
M 301.32 218.96 313.78 218.91 
M 336.34 113.3 333.37 111.81 330.31 108.73 
M 330.31 108.73 333.37 111.81 336.34 113.3 
M 335.61 140.59 332.1 138.58 327.59 133.45 324.69 127.63 324.69 127.63 327.59 133.45 332.1 138.58 335.61 140.59 
M 331.97 123.06 340.93 121.56 
M 332.65 125.62 340.88 125.95 
M 332.54 129.08 341.17 130.54 
M 340.1 177.13 337.37 174.94 333.87 169.34 331.62 163 331.62 163 333.87 169.34 337.37 174.94 340.1 177.13 
M 337.07 158.11 344.64 156.46 
M 337.21 160.71 344.67 160.66 
M 337.8 164.67 344.44 165.5 
M 334.71 203.35 331.48 201.46 327.33 196.59 324.66 191.08 324.66 191.08 327.33 196.59 331.48 201.46 334.71 203.35 
M 331.95 186.45 339.73 185.35 
M 331.59 189.35 339.94 189.06 
M 331.41 192.47 339.87 193.61 
M 315.49 221.43 311.46 216.77 311.46 216.77 315.49 221.43 
M 322.55 212.65 335.13 211.22 
M 322.44 215.06 334.59 215.04 
M 322.6 217.42 334.73 218.64 
M 345.48 127.39 341.72 125.56 336.9 120.87 333.8 115.55 333.8 115.55 336.9 120.87 341.72 125.56 345.48 127.39 
M 342 110.79 351.81 110.28 
M 341.77 113.69 351.22 113.61 
M 342.04 116.46 351.38 117.82 
M 347.77 159.31 344.09 157.19 339.38 151.75 336.35 145.6 336.35 145.6 339.38 151.75 344.09 157.19 347.77 159.31 
M 344.11 140.49 353.62 138.75 
M 343.93 143.61 353.68 144.04 
M 344.67 146.54 353.41 148.03 
M 347.81 191.73 344.08 189.59 339.31 184.11 336.23 177.89 336.23 177.89 339.31 184.11 344.08 189.59 347.81 191.73 
M 343.88 172.48 354.04 171.26 
M 344.31 176.34 353.51 175.85 
M 344.23 179.57 353.92 181.09 
M 341.61 219.03 339.3 218.12 333.12 213.27 329.13 207.78 329.13 207.78 333.12 213.27 339.3 218.12 341.61 219.03 
M 339.64 203.59 351.79 202.2 
M 339.15 206.25 352.17 205.94 
M 339.11 208.91 352.1 210.13 
M 352.24 111.76 349.28 109.99 349.22 109.91 
M 349.22 109.91 349.28 109.99 352.24 111.76 
M 357.73 143.93 354.63 141.86 350.66 136.56 348.1 130.56 348.1 130.56 350.66 136.56 354.63 141.86 357.73 143.93 
M 354.43 126.08 363.03 124.38 
M 354.69 128.43 363.04 128.99 
M 354.72 131.55 362.46 132.96 
M 357.65 175.6 354.73 173.37 351 167.66 348.59 161.2 348.59 161.2 351 167.66 354.73 173.37 357.65 175.6 
M 354.6 155.54 362.01 153.84 
M 354.43 159.55 361.94 159.56 
M 355.11 162.73 362.23 164.55 
M 358.78 210.84 355.24 208.59 350.7 202.82 347.78 196.29 347.78 196.29 350.7 202.82 355.24 208.59 358.78 210.84 
M 355.06 191.13 364.5 189.52 
M 355.66 194.18 364.04 194.28 
M 355.33 197.78 364.35 199.04 
M 364.75 127.21 361.18 125.39 356.6 120.74 353.65 115.47 353.65 115.47 356.6 120.74 361.18 125.39 364.75 127.21 
M 361.01 111.07 363.91 110.7 
M 360.87 113.91 370.18 113.74 
M 361.05 116.65 370.85 117.75 
M 367.04 159.54 363.57 157.38 359.12 151.84 356.26 145.56 356.26 145.56 359.12 151.84 363.57 157.38 367.04 159.54 
M 363.99 140.64 372.36 138.52 
M 363.62 143.61 372.53 143.61 
M 363.47 146.64 372.33 148.04 
M 368.44 194.31 364.69 192 359.89 186.09 356.79 179.38 356.79 179.38 359.89 186.09 364.69 192 368.44 194.31 
M 365.28 173.51 374.67 172.16 
M 364.63 177.22 374.44 177.02 
M 364.65 180.29 374.32 182.21 
M 357.08 216.63 355.24 213.45 355.24 213.45 357.08 216.63 
M 364.84 208.64 376.02 206.48 
M 364.88 211.46 375.83 211.39 
M 364.15 214.58 368.22 215.03 
M 373.84 111.66 372.63 111.11 
M 372.63 111.11 373.84 111.66 
M 375.21 141.49 372.51 139.49 369.06 134.38 366.84 128.58 366.84 128.58 369.06 134.38 372.51 139.49 375.21 141.49 
M 372.96 123.6 379.91 122.64 
M 373.04 126.56 379.68 127.2 
M 372.45 129.64 379.26 131.24 
M 377.57 177.14 374.71 174.78 371.05 168.75 368.68 161.92 368.68 161.92 371.05 168.75 374.71 174.78 377.57 177.14 
M 374.48 155.94 382.04 154.63 
M 374.44 160.26 382.48 159.68 
M 375.12 163.14 382.14 165.16 
M 379.21 213.26 376.59 211.28 372.51 205.11 369.89 198.13 369.89 198.13 372.51 205.11 376.59 211.28 379.21 213.26 
M 376.31 192.11 385.25 190.78 
M 377.04 195.71 384.55 195.92 
M 376.45 199.38 384.54 200.88 
M 383.54 125.47 379.89 123.82 375.22 119.57 372.2 114.76 372.2 114.76 375.22 119.57 379.89 123.82 383.54 125.47 
M 380.05 113.22 389.81 113.49 
M 380.26 115.83 389.59 116.85 
M 384.79 158.05 381.3 155.87 376.83 150.28 373.95 143.95 373.95 143.95 376.83 150.28 381.3 155.87 384.79 158.05 
M 381.59 138.7 390.62 137.13 
M 381.49 141.77 390.79 141.57 
M 381.85 145.16 390.64 146.91 
M 387.81 195.28 384.13 192.85 379.43 186.6 376.4 179.53 376.4 179.53 379.43 186.6 384.13 192.85 387.81 195.28 
M 384.62 173.54 393.76 172.3 
M 384.19 177.26 393.59 177.79 
M 384.45 181.37 394.11 182.55 
M 386.61 209.77 395.71 208.66 
M 392.14 138.37 389.12 136.46 385.26 131.57 382.77 126.03 382.77 126.03 385.26 131.57 389.12 136.46 392.14 138.37 
M 389.61 121.18 396.64 120.03 
M 388.99 124.14 397 124.62 
M 389.41 127.42 396.93 128.23 
M 394.23 175.22 391.18 172.75 387.26 166.43 384.73 159.27 384.73 159.27 387.26 166.43 391.18 172.75 394.23 175.22 
M 390.99 153.42 398.99 151.21 
M 391.19 157.21 399.18 156.6 
M 391.59 160.83 399.25 162.18 
M 394.42 209.24 392.48 206.12 389.88 198.8 389.88 198.8 392.48 206.12 394.42 209.24 
M 396.88 193.07 400.36 192.07 
M 396.35 196.72 400.36 196.8 
M 396.54 200.12 400.36 201.2 
M 400.36 123.63 399.95 123.47 395.23 119.68 392.18 115.4 392.18 115.4 395.23 119.68 399.95 123.47 400.36 123.63 
M 399.81 113.82 400.36 113.85 
M 399.63 116.26 400.36 116.33 
M 400.36 153.13 395.89 148.76 392.9 143.62 392.9 143.62 395.89 148.76 400.36 153.13 
M 400.31 144.86 400.36 144.87 
M 400.36 186.3 399.3 185.18 396.27 179.6 396.27 179.6 399.3 185.18 400.36 186.3 
M 173.74 231.51 174.28 231.46 
M 176.67 231.01 173.42 228.54 169.26 222.21 166.79 215.61 
M 185.57 227.72 192.94 226.37 
M 185.11 231.74 192.53 231.37 
M 191.04 228.47 187.9 225.65 183.87 218.42 183.59 217.52 
M 204.11 226.4 211.51 224.38 
M 203.53 230.44 211.08 230.3 
M 204.03 235.29 204.29 235.38 
M 200.63 219.31 202.66 223.16 205.98 226.3 
M 217.91 237.37 216.7 232.33 216.7 232.33 217.91 237.37 
M 222.4 225.1 228.73 222.81 
M 222.7 229.83 229.15 229.26 
M 222.46 234.38 228.65 236.5 
M 210.96 87.26 210.96 87.26 
M 210.96 87.26 210.96 87.26 
M 235.71 238.61 233.64 234.18 231.65 226.7 231.65 226.7 233.64 234.18 235.71 238.61 
M 236.34 228.15 243.21 229.82 
M 254.24 234.09 251.88 232.18 248.85 227.29 247.39 223.16 
M 239.21 235.43 245.37 234.23 
M 251.4 225.48 258.71 225.17 
M 250.26 238.54 248.78 236.71 246.74 232.26 246.74 232.26 248.78 236.71 250.26 238.54 
M 252.15 231.34 258.88 230.91 
M 252.36 232.84 258.3 234.63 
M 270.35 222.87 272.53 223.12 
M 284.59 102.19 284.59 102.19 
M 267.34 237.74 265.28 235.25 262.95 230.3 262.95 230.3 265.28 235.25 267.34 237.74 
M 308.95 106.88 308.95 106.88 
M 283.89 228.73 280.15 227.01 275.36 222.6 275.35 222.58 
M 275.35 222.58 275.36 222.6 280.15 227.01 283.89 228.73 
M 309.76 106.99 309.76 106.99 
M 287.8 225.65 295.66 224.06 
M 292.15 221.81 295.25 225.6 301.43 229.92 306.27 231.61 
M 315.49 221.43 315.58 221.54 321.98 225.74 326.98 227.38 
M 307.91 227.79 318.34 226.71 
M 308 230.52 318.29 230.2 
M 344.13 220.02 341.61 219.03 
M 341.61 219.03 344.13 220.02 
M 328.19 225.16 343.22 223.73 
M 328.06 227.24 342.72 227.74 
M 328.4 230.12 342.8 230.81 
M 349.22 109.91 349.22 109.91 
M 345.55 231.2 342.62 226.96 342.62 226.96 345.55 231.2 
M 352.24 222.45 362.91 221.02 
M 351.64 225.54 362.94 224.92 
M 368.71 227.2 364.41 225.1 358.83 219.64 357.08 216.63 
M 357.08 216.63 358.83 219.64 364.41 225.1 368.71 227.2 
M 379.77 213.68 379.21 213.26 
M 383.04 224.22 381.47 222.28 378.38 215.57 378.38 215.57 381.47 222.28 383.04 224.22 
M 386.53 217.29 396.35 218.78 
M 399.65 215.1 396.51 212.58 394.42 209.24 
M 394.42 209.24 396.51 212.58 399.65 215.1 
M 189.89 87.03 189.89 87.03 
M 196.4 87.08 204.45 63.47 206.61 61.69 208.34 59.49 210.41 57.63 212.22 55.5 214.56 53.91 218.61 50.11 221.36 48.94 223.96 47.62 226.3 46.04 229.81 41.75 232.56 40.82 234.77 39.35 237.28 38.19 239.82 37.05 245.77 36.51 247.51 35.88 250.09 36.08 252.22 35.84 257.85 36.31 260.53 35.99 263.62 36.08 265.64 35.09 271.65 34.98 274.9 34.63 277.6 33.73 283.54 33.84 287.12 35.34 289.84 35.99 295.4 38.38 295.86 40.45 296.61 42.81 297.76 47.65 297.96 50.66 298.5 54.01 299.03 57.35 298.97 60.09 298.59 62.53 299.15 67.52 300.48 70.37 300.81 72.22 302.19 75.11 303.22 77.69 296.58 104.9 
M 289.67 103.49 289.67 103.48 
M 194.53 87.07 196.08 85.68 197.23 83.59 197.9 82 198.83 79.7 199.86 77.48 200.3 74.57 201.72 71.33 202.73 68.98 
M 203.81 87.15 205.75 85.46 207.08 82.98 207.48 80.8 207.73 78.59 208.58 76.5 209.45 73.52 210.64 71.17 
M 213.08 87.34 214.69 86.13 215.41 84.43 217.01 81.46 218.15 78.31 218.55 75.3 219.56 73.08 220.16 70.54 220 68.47 220.16 65.59 222 63.16 222.89 60.65 223.63 57.64 224.55 55.44 226.25 52.48 227.86 50.15 229.04 47.39 
M 222.35 87.83 224.01 86.43 225.18 84.22 226.24 82.17 227.54 79.35 228.69 76.39 229.53 73.87 230.52 72.04 230.76 69.12 231.54 66.67 232.31 63.67 233.7 61.44 236 58.25 236.63 56.13 237.16 53.67 237.32 50.45 237.89 47.96 238.95 44.39 
M 231.57 88.83 233.62 87 234.94 84.62 236.16 82.53 237.04 80.26 238.73 78.37 240.19 76.04 240.7 73.93 241.88 71.43 243.28 69.67 244.13 67.26 244.03 64.22 244.93 61.56 246.2 59.32 246.92 55.85 248.71 52.41 250.47 50.69 251.16 48.73 253.12 46 254.82 43.66 
M 240.71 90.45 242.94 88.97 244.64 87.08 245.81 84.52 247.47 82.49 249.29 80.51 250.35 77.97 251.69 75.23 252.88 72.71 254.55 70 255.84 67.84 256.5 65.2 257.48 62.61 258.39 60.68 259.83 59.43 260.42 56.28 261.31 52.93 262.57 50.78 264.75 48.27 265.66 46.11 267.17 44.54 
M 245.23 91.52 247.76 90.21 249.06 88.1 250.69 85.63 252.32 83.43 254.04 81.43 255.35 79.37 256.22 76.8 257.23 73.87 258.81 71.33 259.62 69.1 260.98 66.02 262.5 64.68 264.95 63.27 265.75 61.5 
M 254.22 93.81 256.17 92.2 257.62 89.96 259.55 87.68 261.42 85.67 263.46 83.84 264.58 81.3 265.61 78.89 267.68 76.9 269.15 75.11 270.18 73.31 271.46 70.74 272.45 67.77 
M 263.17 96.27 265.38 94.62 267.44 92.56 269.61 90.5 271.69 87.98 273.26 86.37 274.3 83.98 275.03 81.12 276.13 78.77 278.33 77.45 279.7 74.61 280.85 71.97 282.34 70.06 283.23 68.74 285.28 66.05 287.25 64.4 289.27 62.26 292.02 60.95 
M 272.1 98.8 274.53 97.63 276.57 96.12 278.64 94.35 280.59 91.99 281.26 89.2 282.63 86.89 284.87 84.95 286.89 82.84 
M 281.04 101.29 284.25 100.38 285.87 98.51 286.89 96.22 288.25 94.59 289.3 92.74 292.55 90.51 294.86 87.94 296.47 85.46 299.16 82.88 
M 161.94 171.13 163.77 171.22 166.9 170.58 169.9 169.76 172.33 168.63 174.39 167.15 177.52 166.22 180.36 165.24 182.44 165.36 185.46 164.91 188.66 163.97 191.55 164.13 193.43 162.77 196.18 161.28 199.43 160.96 202.2 160.18 205.77 159.91 208.45 158.85 213.18 156.82 252.05 153.7 254.37 154.86 257.36 156.69 259.69 157.87 262.34 159.36 264.06 159.93 265.39 160.1 267.81 161.37 274.11 166.74 274.54 168.62 275.18 170.71 275.75 172.72 276.51 174.93 278.41 178.28 281.17 183.96 281.45 185.74 282.56 188.33 283.95 191.22 285.51 194.26 283.88 197.97 281.39 199.12 279.27 200.64 276.96 201.98 274.13 202.79 271.67 203.97 268.95 204.89 266.34 205.92 263.7 206.93 261.56 208.42 257.06 210.75 211.91 203.62 207.34 200.74 205.05 200.55 202.93 199.78 199.87 198.8 197.18 197.63 194.72 195.54 191.7 194.98 188.56 194.12 185.46 192.51 182 191.4 179.68 190.27 176.99 189.32 174.85 187.96 172.63 186.29 170.05 184.83 167.06 183.26 164.69 182.2 
M 166.68 172.3 169.74 171.93 172.4 171.14 174.59 170.35 177.39 169.21 180.31 168.96 183.19 168.88 185.1 169.26 187.73 168.58 190.85 167.19 193.87 166.37 195.85 165.66 199.86 165.78 203.39 165.86 207.31 165.64 209.59 164.57 211.85 163.63 214.87 161.49 218.51 160.18 220.98 160.77 224.51 161.15 227.56 160.73 229.68 159.64 230.9 158.43 232.91 158.13 236.11 157.26 239.51 156.22 241.15 155.95 
M 169.76 174.11 172.49 174.18 175.02 173.86 177.79 173.56 180.67 173.64 183.39 173.9 186.11 173.73 188.84 173.48 191.38 172.29 195.16 171.56 198.13 171.61 200.96 171.43 203.76 170.89 206.44 170.92 209.76 170.6 212.59 170.3 215.62 170.84 218.5 170.08 221.26 169.39 224.37 167.94 227.19 167.82 228.62 169.24 230.96 169.54 233.95 169.87 236.67 169.16 240.04 168.37 242.87 166.89 245.41 166.92 248.13 166.54 
M 162.91 175.8 163.71 175.96 166.78 176.15 169.89 176.43 172.79 177.05 175.46 177.58 178.57 178.12 181.2 178.03 183.71 178.58 186.41 178.71 189.05 178.69 192.24 178.44 196.9 178.05 200 178.16 202.13 177.66 203.62 177.62 206.35 178.08 209.34 178.17 212.25 178.61 215.33 178.67 217.31 179.17 220.4 179.84 223.6 179.68 226.31 180.08 230.21 180.29 233.02 180.62 235.37 180.6 239.14 180.14 242.79 179.7 246.47 179.93 248.83 180.9 250.94 181.12 254.81 181.32 256.81 180.92 257.86 181.41 260.24 182.3 263.28 182.98 267.13 182.37 271.22 181.93 275.08 182.48 277.2 182.56 
M 169.61 179.23 172.28 180.08 175.23 180.86 178.3 181.29 180.29 181.82 183.19 182.43 186.26 183.46 189.07 183.98 191.97 183.56 194.81 183.99 197.63 184.23 200.53 185.43 204.39 185.58 207.8 185.41 210.51 186.3 213.42 186.43 216.93 186.66 219.99 187.43 222.48 187.88 224.42 187.82 
M 169.81 181.89 172.12 183.01 174.94 183.93 177.67 185.28 179.84 185.73 182.27 186.57 185.63 187.59 188.19 188.58 191.04 189.44 193.87 189.39 196.66 189.77 199.99 191.47 203.34 192.56 206.56 192.89 209.47 193.63 211.86 194.73 214.98 195.2 217.44 195.84 218.92 196.91 221.53 198.94 224.7 200.7 226.68 200.96 229.92 201.75 232.73 203.16 235.84 204.16 238.17 204.52 
M 239.78 246.5 245.27 252.46 248.83 256.04 251.26 265.23 249.8 267.62 245.22 270.7 242.02 271.25 236.19 272.79 234.65 274.72 229.28 276.26 225.39 275.04 222.5 274.83 217.13 274.99 214.36 275.51 211.43 275.88 206.66 275.16 204.16 273.3 201.79 271.57 197.41 268.46 195.42 267.01 193.51 265.64 189.88 262.96 176.33 248.34 173.87 242.84 169.93 238.52 
M 235.14 246.44 239.19 250.74 241.61 253.76 
M 225.87 246.05 229.17 249.49 231.78 252.35 233.4 255.35 
M 216.65 245.06 219.34 248.14 221.23 250.95 222.64 254.13 224.86 258.06 226.91 261.38 228.43 264.39 
M 207.48 243.66 210.18 247.06 212.15 249.74 214.24 252.6 215.8 254.88 218 257.52 220.31 260.75 
M 198.29 242.35 201.03 246.26 203.1 248.84 204.64 251.59 206.38 254.27 208.33 257.37 210.23 260.24 
M 189.07 241.31 191 244.85 193.45 247.73 195.93 251.02 197.24 254 198.09 256.84 199.24 260.55 200.75 262.64 
M 179.87 240.05 182.17 244.34 183.69 247.25 185.09 249.55 185.99 251.7 187.48 255.18 190.08 257.98 192.53 260.49 193.92 263.38 
M 175.29 239.35 177.68 243.26 179.65 246.35 181.29 249.38 
M 339.57 238.76 344.45 243.8 346.27 247.47 347.19 251.7 348.4 258.65 346.09 259.88 341.14 262.07 339.7 264.33 337.25 265.58 332.35 268.05 329.79 269.03 326.38 269.17 321.69 271.6 319.01 272.42 312.7 273.07 310.88 274.59 305.16 274.36 301.48 272.64 296.51 271.06 294.51 270.08 291.48 268.08 285.58 265.89 282.63 265.84 277.57 266.29 266.69 257.94 264.16 254.98 262.08 251.48 259.74 245.75 
M 334.98 239.5 337.61 243.24 340.17 246.09 341.95 249.57 343.17 252.99 
M 325.79 240.73 328.6 244.57 331.16 247.72 333.39 250.63 335.82 252.96 
M 316.54 241.47 319.32 245.6 321.51 248.65 324.2 252.08 325.92 255.34 326.39 257.38 328.26 259.33 330.13 262.35 331.2 264.6 
M 307.27 241.91 309.79 245.6 312.12 248.4 314.13 251.28 315.33 254.21 316.91 257.38 
M 298 242.28 300.34 245.87 302.42 248.63 303.55 251.36 304.85 254.13 306.58 257.37 
M 288.73 242.83 291.68 246.46 294.01 248.97 295.56 251.25 296.58 254.81 296.63 258.47 298.21 262.36 300.06 265.27 
M 279.5 243.76 282.49 247.8 284.63 250.17 286.53 252.83 287.88 255.3 288.67 257.86 289.36 260.34 290.99 263.28 
M 274.89 244.31 277.61 248.64 279.4 251.12 281.53 254.44 282.9 258.08 284.24 260.33 286.06 262.78 286.94 265.05 
M 265.66 245.26 268.17 250.32 269.51 253.71 270.9 256.73 
M 399.44 113.21 402.95 112.61 404.96 111.74 407.53 110.74 409.97 109.57 412.61 108.28 415.75 106.28 418.55 104.81 421.48 102.98 424.3 101.75 425.75 100.48 428.57 99.46 430.88 98.45 434.81 96.82 438.45 96.8 440.92 94.11 446.94 98.3 449.4 99.23 454.05 101.21 455.92 103.09 457.85 105.02 462.58 109.7 464.43 111.5 468.83 115.86 469.86 118.24 470.51 120.24 473.24 125.03 474.95 127.4 476.67 129.79 479.14 133.74 480.48 135.91 482.05 138.32 483.77 143.31 483.66 146.19 483.29 148.79 484.27 155.13 485.14 157.89 486.9 161.53 487.47 166.17 487.73 168.95 488.64 174.82 488.78 177.25 489.2 179.94 489.69 185.6 490 188.84 489.8 191.59 488.66 197.09 486.16 198.48 482.55 202.62 481.25 204.99 480.54 207.96 480.62 211.71 477.56 216.14 475.79 218.19 472.5 222.57 471.36 225.31 470.11 227.93 466.72 232.36 465.54 235.12 463.25 236.76 456.08 237.38 451.34 240.35 450 242.94 448.44 245.31 445.94 247.87 436.98 251.39 434.66 250.01 432.67 249.57 431.15 247.9 427.75 245.26 424.45 244.11 422.45 242.9 420.33 241.6 418.51 239.1 415.68 236.71 412.8 234.22 409.89 232.52 407.68 230.67 405.52 229.36 402.9 227.24 399.44 224.24 
M 399.44 118.76 402.99 118.63 405.34 117.38 407.85 116.34 410.59 115.25 413.27 114.37 415.7 112.62 418.68 110.19 420.99 109.25 424.21 108.28 
M 402.97 124.16 405.6 123.21 407.98 121.62 410.57 120.93 412.91 120.5 415.68 119.13 418.01 117.67 420.99 116.14 424.15 114.45 426.33 114.72 428.71 114.27 432.45 112.21 435.22 110.45 437.91 109.02 440.24 107.34 442.16 105.82 444.86 104.5 447.15 104.02 449.84 102.83 
M 399.44 129.87 403.11 129.25 405.93 128.82 408.22 128.35 410.93 127.29 413.8 126.92 416.16 126.19 419.51 125.18 422.41 124.96 426.09 123.96 428.98 121.65 431.86 120.41 433.4 119.27 435.65 117.56 438.04 117.32 441.02 115.24 443.88 114.59 444.85 115.63 446.89 114.97 449.92 113.43 
M 405.98 135.08 408.31 134.56 411.36 133.77 414.18 132.73 416.7 130.86 419.59 129.73 422 129.23 425.28 128.92 427.83 128.32 430.5 127.74 433.4 127.69 435.44 126.38 437.52 125.57 441.27 123.81 445.32 123.06 448.23 122.32 
M 406.05 140.5 409.04 139.78 411.87 138.96 414.21 138.37 416.66 137.67 419.47 136.89 422.67 136.79 425.51 136.41 427.37 135.15 430.53 134.67 434.26 133.92 437.24 133.6 440.15 133.13 442.45 132.57 445.5 131.85 448.89 130.4 451.61 129.35 452.69 129.09 455.9 128.13 458.87 127.74 461.7 127.69 
M 402.6 146.47 405.61 146.38 408.39 146.24 411.38 145.99 414.1 145.23 417.06 144.45 420.24 144.01 422.78 143.63 425.58 143.39 428.21 142.84 431.46 142.18 435.04 141.07 438.71 138.77 441.16 138.73 443.68 140.36 446.76 140.89 449.25 140.32 452.11 139.49 
M 399.44 152.07 402.91 152.25 405.9 152.28 408.42 152.3 411.27 151.98 414.05 151.66 416.58 150.83 419.33 150.62 422.97 150.28 426.2 150.03 429.72 149.55 431.7 149 434.72 149.41 438.42 148.45 441.26 148.19 444.09 148.29 446.96 147.94 449.68 147.38 452.21 145.73 454.77 145.24 458.75 146.16 461.65 146.54 464.38 146.65 467.91 146.38 470.96 145.71 473.78 145.78 476.55 144.65 478.74 144.04 
M 399.44 157.62 402.79 158.2 406.41 158.22 409.75 158.01 412.35 158.06 414.2 157.77 417.15 157.83 420.02 157.87 423.35 157.42 426.26 156.65 429.15 156.61 432.43 155.81 435.31 155.22 438.27 155.45 441.19 155.12 444.23 155.46 447.53 154.98 450.52 155.04 452.27 155.55 455.29 154.68 458.45 154.45 461.38 154.46 464.83 154.81 467.92 154.03 470.26 153.82 472.29 152.25 474.14 151.62 477.01 151.2 480.11 151.52 482.5 152.91 
M 399.44 163.17 402.88 164 406.05 164.48 409.09 164.72 411.85 164.7 414.68 164.52 418.51 164.38 421.56 164.36 424.01 164.35 425.9 164.78 428.74 165.25 432.24 164.58 435.57 164.21 439.21 163.68 441.14 163.78 443.98 164.68 447.37 164.36 450.3 164.63 453.44 164.51 456.15 164.75 458.6 164.1 462 163.64 465.17 163.31 468.72 163.39 470.47 164.1 
M 399.44 168.73 402.97 169.61 405.75 170.14 409.06 170.44 412.19 171.09 415.42 171.07 419.12 171.25 421.88 171.42 423.7 172.36 426.23 172.1 428.89 171.95 432.02 172.44 435.94 172.5 439.38 172.64 442.09 172.7 444.99 172.46 447.32 171.76 449.65 171.58 453.42 171.16 
M 399.44 174.28 403.14 175.24 406.18 175.48 409.4 175.72 412.42 176.54 415.52 177.43 418.41 177.68 421.43 178.27 424.04 178.78 426.59 178.4 429.63 178.45 431.91 179.19 434.72 179.75 437.56 179.52 441.09 179.78 444.45 179.28 447.52 179.01 450.19 179.33 452.12 179.76 454.45 181.11 457.45 181.23 459.77 180.51 464.09 181.39 468.13 182.54 
M 408.83 181.79 412.04 182.07 415.42 182.49 418.67 183.42 421.73 183.62 424.29 184.55 426.22 184.75 428.88 184.97 432.01 185.62 435.09 185.77 437.85 185.63 441.03 186.25 444.74 186.15 448.53 186.85 451.21 187.47 452.99 187.73 455.06 188.46 458.02 188.59 461.02 189.3 
M 408.91 188.25 411.83 188.91 414.79 189.27 418.23 190.14 421.33 190.63 424.08 191.55 426.13 192.56 428.54 193.89 431.63 194.06 434.94 194.99 439.09 195.68 441.98 196.06 444.07 196.49 447.67 197.3 
M 406.19 193.77 409.75 194.73 412.8 195.31 415.44 195.63 418.02 196.06 420.77 196.87 423.28 197.91 426.05 199.48 429.11 200.89 432.47 201.65 435.68 202.54 438.17 202.38 441.11 202.73 443.54 203.21 445 204.01 447.9 205.17 451.83 205.21 455.11 205.59 457.22 206.84 460.04 208.41 462.99 209.35 467.55 210.78 470.95 212.07 472.26 212.18 473.24 212.08 
M 409.52 200.91 412.12 202.4 414.99 203.49 418.14 204.75 420.78 205.5 423.17 206.38 426.3 207.03 429.2 207.5 431.78 208.18 434.03 209.39 437.04 208.94 440.02 209.74 442.83 211.9 446.04 213.1 448.28 214.47 
M 405.72 205.34 408.58 206.96 411.67 208.34 415.09 209.58 418.44 210.87 421.01 212.04 423.22 212.75 425.62 213.14 428.18 214.24 430.71 215.04 433.58 215.58 437.14 216.72 440.01 217.68 443.14 219.56 445.13 222 446.18 224.32 449.12 225.14 452.99 224.81 
M 399.44 207.59 403.06 209.48 405.69 211.19 408.09 212.54 411.03 213.9 414.19 215.92 417.91 216.95 420.29 218.11 422.2 219.33 424.27 220.05 427.45 221.43 430.43 222.77 433.39 223.75 436.57 225.97 439.29 227.97 441.87 228.9 444.07 231.1 446.1 232.18 448.78 234.49 
M 405.79 216.97 408.69 218.87 411.59 220.68 414.23 221.38 416.55 222.41 419.32 223.9 422.19 225.57 425.11 226.91 427.65 228.5 430.48 230.58 432.79 231.67 
M 405.48 223.33 408.33 225.55 410.93 226.96 413.77 227.78 416.36 228.87 419.06 230.47 422.28 232.39 424.69 235.09 427.85 236.99 
M 319.61 107.97 321.51 112.96 334.45 90.56 336.83 89.12 338.91 87.37 341.04 85.67 343.83 84.64 348.01 81.24 350.17 79.99 352.69 79.1 355.97 78.97 360.14 76.45 363.37 76.4 369.3 76.05 371.96 77.09 374.83 78.36 377.44 80.78 378.49 83.28 379.82 86.05 381.32 88.99 383.54 93.02 382.25 115.5 379.48 111.45 
M 324.24 108.3 326.58 107.53 328.34 105.91 330 104.2 331.34 101.33 332.48 98.22 
M 333.49 108.94 335.44 108.27 336.66 106.58 337.85 104.27 339.34 101.13 339.74 98.23 340.05 95.93 341.08 94.24 342.14 90.58 343.66 86.9 344.41 83.64 
M 342.76 109.52 344.74 108.6 346.02 106.03 346.91 103.22 347.69 100.93 348.35 98.94 349.73 96.63 
M 352.02 110.07 353.94 108.69 355.07 106.82 356.47 104.84 357.69 102.45 359.99 100.57 361.19 97.7 361.97 94.87 362.84 92.33 363.83 90.77 364.21 88.55 365.43 86.25 367.34 83.09 
M 361.29 110.58 363.15 109.48 365.21 107.65 366.56 105.5 368.16 103.2 368.67 100.74 369.42 98.14 370.86 95.08 371.13 91.87 373.07 91.63 374.94 89.75 375.45 86.79 
M 370.56 111.01 373.34 110.34 375.16 108.92 376.3 105.43 377.12 102.9 
M 64.63 133.76 64.99 132.8 66.2 131.02 68.31 128.81 71.33 126.34 74.92 123.41 79.11 120.23 84.46 117.24 90.46 113.86 96.44 110.15 102.31 106.47 108.45 103.02 115.28 100.15 121.67 97.59 127.99 95.17 134.3 93.16 139.79 91.75 144.35 90.78 147.94 90.15 149.97 89.9 154.18 97.38 156.46 105.01 158.34 112.66 159.92 120.33 160.99 128.04 161.11 135.81 160.33 143.64 160.07 151.43 160.58 159.18 161.17 166.92 162.58 174.6 164.69 182.23 165.7 189.94 166.43 197.67 166.85 205.42 166.99 213.19 166.35 221.01 164.73 228.9 159.96 237.04 146.96 236.78 137.35 235.28 128.97 232.88 121.22 229.46 114.57 225.04 108.13 220.25 102.27 214.68 96.25 207.9 91.13 200.25 86.71 192.53 81.74 184.89 77.88 177.17 77.7 176.72 
M 65.15 136.33 65.01 135.87 64.63 133.76 
M 135.1 143.23 134.83 148.13 135.09 153.63 135.97 158.64 136.15 163.34 136.63 167.92 137.41 172.48 138.42 177.24 139.21 182.54 139.6 188.61 137.75 195.78 129.06 196.97 122.62 197.53 116.71 197.49 110.77 196.47 105.37 194.16 99.92 190.93 94.9 186.35 
M 76.68 175.63 76.33 174.67 75.65 172.46 74.87 170.37 74.14 168.21 73.4 166.14 72.56 163.92 71.76 161.71 70.92 159.52 70 157.34 69.11 155.2 68.27 153.08 67.36 150.88 66.54 148.7 65.68 146.58 64.88 144.42 64.08 142.31 63.39 140.15 64 136.11 67.94 136.88 68.51 139.14 69.12 141.37 69.63 143.56 70.23 145.81 70.86 148.01 71.42 150.17 72.11 152.39 72.82 154.55 73.44 156.8 74.04 159.18 74.58 161.52 75.04 163.8 75.49 166.04 75.98 168.22 76.49 170.43 77.03 172.66 77.98 176.65 
M 77.34 177.15 75.33 176.03 73.34 174.91 71.31 173.98 69.37 173.1 67.33 172.17 65.19 171.14 63.08 170.19 61 169.29 58.96 168.4 57 167.5 54.99 166.62 52.92 165.66 50.76 164.59 48.51 163.51 46.4 162.45 44.23 161.41 42.12 160.47 39.95 159.45 37.73 158.4 35.54 157.35 33.37 156.45 30 153.54 33.24 150.33 35.25 151.5 37.29 152.65 39.36 153.8 41.49 155.04 43.54 156.22 45.47 157.31 47.52 158.54 49.63 159.77 51.67 161.01 53.67 162.29 55.72 163.46 57.79 164.57 59.68 165.63 61.56 166.62 63.43 167.68 65.51 168.89 67.55 170.19 69.62 171.35 71.55 172.38 73.45 173.45 75.35 174.72 77.75 176.38 
M 101.48 146.66 97.27 140.76 95.2 133.81 95.5 126.57 98.13 119.82 102.82 114.28 109.05 110.57 116.14 109.09 123.34 109.98 129.85 113.17 134.97 118.29 138.16 124.8 139.05 132 137.57 139.09 133.86 145.32 128.32 150.01 121.57 152.64 114.33 152.94 107.38 150.87 101.48 146.66 
M 131.39 120.85 133.94 126.06 134.65 131.82 133.46 137.49 130.49 142.47 126.07 146.22 120.67 148.33 114.87 148.57 109.31 146.91 104.59 143.54 
M 110.13 136.62 108.44 134.26 107.62 131.48 107.73 128.58 108.79 125.88 110.66 123.67 113.15 122.19 115.99 121.59 118.87 121.95 121.47 123.22 123.52 125.27 124.8 127.88 125.16 130.76 124.56 133.59 123.08 136.08 120.86 137.96 118.16 139.01 115.27 139.13 112.49 138.31 110.13 136.62 
M 109.12 133.12 115.07 139.08 
M 110.36 131.86 117.54 139.04 
M 114.82 133.81 119.5 138.49 
M 114.43 130.91 121.19 137.68 
M 117.75 131.73 122.55 136.53 
M 116.64 128.11 123.65 135.12 
M 118.46 127.42 124.57 133.54 
M 116.5 122.97 125.01 131.47 
M 118.99 122.95 124.92 128.88 
M 95.27 206.43 99.31 210.48 
M 86.29 191.89 90.3 195.9 
M 78.61 178.64 81.92 181.95 
M 76.66 171.12 78.49 172.95 
M 75.08 163.97 77.91 166.81 
M 73.43 156.75 75.28 158.6 
M 71.08 148.84 72.16 149.92 
M 69.09 141.28 70.27 142.46 
M 65.47 132.1 70.24 136.87 
M 68.04 129.09 72.08 133.14 
M 71.07 126.55 76.35 131.83 
M 74.13 124.05 78.64 128.55 
M 77.27 121.62 82.81 127.16 
M 80.61 119.39 84.57 123.35 
M 84.18 117.39 88.06 121.28 
M 87.74 115.39 92.75 120.4 
M 91.27 113.35 94.68 116.76 
M 94.71 111.22 99.62 116.13 
M 98.14 109.08 103.15 114.09 
M 101.56 106.94 106.64 112.01 
M 105.1 104.9 108.87 108.68 
M 108.68 102.92 111.83 106.07 
M 112.6 101.27 116.42 105.09 
M 116.54 99.65 120.44 103.54 
M 120.52 98.05 123.96 101.49 
M 124.53 96.5 129.51 101.48 
M 128.58 94.98 133.16 99.56 
M 132.8 93.63 137.03 97.86 
M 137.16 92.42 142.24 97.5 
M 141.66 91.35 147.14 96.84 
M 146.31 90.44 149.74 93.86 
M 109.96 156.09 109.3 155.73 108.72 155.34 108.04 155.04 107.47 154.89 107.05 154.89 106.66 155.01 106.27 155.28 105.88 155.67 105.5 156.15 105.12 156.72 104.84 157.33 104.69 157.77 104.59 158.09 104.49 158.37 104.38 158.62 
M 139.7 97.5 139.84 97.46 139.98 97.43 140.12 97.39 140.25 97.36 140.35 97.33 140.43 97.29 140.49 97.24 140.55 97.19 140.6 97.13 140.65 97.05 140.71 96.97 140.77 96.86 140.84 96.73 140.93 96.55 141.02 96.34 
M 155.54 111.95 155.76 111.99 156.01 112.1 156.3 112.29 156.66 112.55 157.03 112.84 157.35 113.09 157.59 113.3 157.76 113.45 157.88 113.53 157.96 113.56 158.04 113.55 158.12 113.52 158.21 113.48 158.3 113.43 158.4 113.38 
M 77.42 157.06 76.77 156.48 76 156.07 75.1 155.74 74.1 155.56 73.1 155.57 
M 150.19 149.1 150.32 149.77 150.47 150.28 150.59 150.68 150.67 150.99 150.73 151.28 150.81 151.56 150.91 151.83 151.01 152.05 151.09 152.22 151.16 152.35 151.22 152.45 151.28 152.52 151.32 152.59 151.37 152.64 151.41 152.68 
M 131.26 191.8 131.23 191.09 131.21 190.54 131.12 190.13 130.97 189.74 130.85 189.37 130.81 189.04 130.82 188.77 130.8 188.56 130.76 188.42 130.71 188.31 130.65 188.24 130.59 188.2 130.53 188.18 130.49 188.18 130.45 188.18 
M 138.03 221.54 137.84 221.97 137.68 222.36 137.63 222.66 137.67 222.9 137.73 223.13 137.8 223.35 137.87 223.55 137.93 223.74 138.01 223.93 138.12 224.11 138.28 224.29 138.49 224.48 138.74 224.67 139 224.82 139.25 224.92 
M 125.05 172.32 124.68 172.24 124.34 172.18 123.99 172.1 123.62 171.98 123.21 171.85 122.8 171.73 122.45 171.65 122.12 171.62 121.78 171.65 121.39 171.76 120.96 171.96 120.63 172.27 120.39 172.69 120.17 173.19 119.93 173.69 
M 113.55 162.5 114.04 162.16 114.52 161.74 114.98 161.25 115.3 160.65 115.48 160.17 115.53 159.85 115.47 159.61 115.34 159.43 115.14 159.27 114.87 159.09 114.5 158.84 114.04 158.47 113.55 158.04 112.94 157.63 112.22 157.28 
M 97.08 192.5 96.69 192.18 96.22 191.81 95.59 191.37 94.77 190.82 93.84 190.2 92.75 189.72 91.7 189.44 90.71 189.29 89.85 189.2 89.08 189.08 88.45 189.18 87.86 189.42 87.28 189.77 86.78 190.13 86.45 190.55 
M 91.07 133.99 90.61 133.92 90.24 133.79 89.93 133.62 89.65 133.39 89.42 133.09 89.23 132.73 89.04 132.41 88.85 132.16 88.72 131.94 88.63 131.73 88.57 131.52 88.53 131.32 88.49 131.15 88.45 131.02 88.4 130.93 
M 157.75 173.79 156.7 172.95 155.83 172.13 155.18 171.53 154.62 170.99 154.2 170.52 153.89 170.11 153.63 169.74 153.37 169.41 153.11 169.15 152.83 168.97 152.54 168.88 152.23 168.88 151.91 168.95 151.6 169.11 151.29 169.39 
M 91.31 180.27 90.92 180.25 90.65 180.13 90.45 179.98 90.33 179.84 90.24 179.72 90.19 179.6 90.15 179.51 90.13 179.42 90.11 179.35 90.1 179.29 90.09 179.24 90.08 179.2 90.08 179.16 90.07 179.14 90.07 179.12 
M 155.82 111.09 155.94 111.06 156.07 111.04 156.22 111.05 156.38 111.09 156.59 111.16 156.85 111.28 157.2 111.44 157.64 111.65 158.09 111.91 158.17 111.96 
M 111.91 181.61 111.06 181.45 110.16 181.3 109.28 181.04 108.57 180.72 108 180.43 107.54 180.09 107.18 179.77 106.87 179.48 106.61 179.21 106.44 178.98 106.35 178.78 106.32 178.61 106.32 178.45 106.35 178.31 106.4 178.16 
M 83.03 171.98 82.92 171.46 82.91 171.26 82.95 171.19 83.01 171.18 83.08 171.17 83.14 171.17 83.2 171.17 83.26 171.17 83.32 171.17 83.37 171.18 83.42 171.18 83.46 171.18 83.5 171.18 83.53 171.19 83.55 171.19 
M 146.4 128.67 145.73 128.17 144.96 127.61 144.12 126.75 143.22 125.75 142.36 124.87 141.52 124.19 140.7 123.6 139.87 123.26 139.11 123.21 138.31 123.21 137.46 123.21 137.37 123.2 
M 141.7 218.49 142.18 218.26 142.62 218.05 142.99 217.77 143.3 217.38 143.55 216.9 143.79 216.35 144.09 215.78 144.44 215.17 144.83 214.55 145.24 213.95 145.7 213.39 146.14 212.96 146.51 212.52 146.8 212.1 147 211.68 
M 89.99 190.67 89.02 190.29 88.24 190.21 87.53 190.32 86.9 190.53 86.48 190.92 86.05 191.31 85.97 191.39 
M 134.65 215.84 134.66 215.87 134.67 215.91 134.68 215.93 134.68 215.96 134.68 215.98 134.68 216.01 134.68 216.03 134.68 216.04 134.67 216.06 134.66 216.08 134.65 216.1 134.63 216.11 134.61 216.13 134.59 216.14 134.56 216.16 
M 77.73 176.71 77.79 176.9 77.88 177.17 77.96 177.44 78.15 178.06 
M 74.66 169.75 74.53 170.15 74.8 170.16 
M 73.29 165.85 73.16 165.99 72.85 166.64 73.33 166.52 73.55 166.57 
M 71.91 162.11 71.62 162.35 71.18 163.13 71.78 162.88 72.2 162.92 
M 70.46 158.43 70.07 158.71 69.5 159.62 70.24 159.25 70.81 159.26 
M 68.95 154.8 68.53 155.08 67.83 156.11 68.69 155.61 69.27 155.59 
M 67.47 151.15 66.98 151.44 66.16 152.6 67.15 151.97 67.79 151.92 
M 66.04 147.46 65.44 147.8 64.48 149.09 65.6 148.33 66.36 148.26 
M 64.63 143.77 63.89 144.16 62.81 145.58 64.06 144.69 64.94 144.58 
M 63.41 139.99 62.35 140.52 61.13 142.07 62.51 141.05 63.63 140.9 
M 64.73 134.98 60.8 136.88 59.46 138.56 60.97 137.42 63.87 136.97 
M 77.45 176.94 77.63 177.04 77.88 177.17 78.12 177.3 78.7 177.6 
M 65.28 168.76 65.49 168.7 65.42 168.84 
M 61.83 166.77 62.39 166.58 62.15 166.95 
M 58.3 164.86 58.34 164.82 59.29 164.46 58.83 165.08 58.82 165.15 
M 54.91 163 55.12 162.79 56.19 162.34 55.62 163.05 55.55 163.37 
M 51.67 161.01 51.91 160.75 53.09 160.22 52.4 161.01 52.31 161.42 
M 48.4 159.05 48.69 158.71 50 158.11 49.19 158.97 49.06 159.44 
M 45.12 157.11 45.48 156.68 46.9 155.99 45.97 156.94 45.81 157.51 
M 41.8 155.22 42.26 154.64 43.8 153.87 42.76 154.9 42.53 155.64 
M 38.5 153.32 39.05 152.61 40.7 151.75 39.54 152.86 39.26 153.74 
M 35.17 151.45 35.83 150.57 37.61 149.63 36.32 150.83 35.97 151.9 
M 30.03 152.05 32.62 148.53 34.51 147.51 33.11 148.79 32.23 151.33 
M 30.86 152.49 30.95 152.59 
M 35 157.13 36.54 158.85 42.33 165.07 48.33 170.93 54.66 176.45 61.34 181.67 68.53 186.65 75.99 191.28 83.62 195.81 91.13 200.25 
M 151.15 89.7 162.28 100.83 
M 157.56 88.68 163.18 94.31 
M 164.16 87.86 171.57 95.27 
M 170.94 87.22 180.54 96.82 
M 178.14 87 188.44 97.29 
M 185.56 86.99 195.75 97.18 
M 193.05 87.06 201.72 95.72 
M 200.53 87.12 209.72 96.31 
M 208.03 87.19 215 94.16 
M 215.7 87.44 226.05 97.79 
M 223.64 87.95 231.03 95.34 
M 232.02 88.91 242.33 99.21 
M 241.08 90.54 247.95 97.42 
M 250.86 92.9 259.31 101.35 
M 261.06 95.68 269.36 103.98 
M 271.41 98.6 281.42 108.61 
M 281.68 101.45 291.93 111.69 
M 291.52 103.86 299.21 111.56 
M 300.77 105.7 311.57 116.49 
M 309.46 106.96 320.53 118.03 
M 317.71 107.78 326.9 116.97 
M 325.76 108.41 332.83 115.48 
M 333.73 108.95 341.98 117.21 
M 341.65 109.45 350.9 118.7 
M 349.56 109.93 359.33 119.7 
M 357.43 110.38 364.1 117.05 
M 365.23 110.76 373.54 119.07 
M 373.02 111.13 378.97 117.08 
M 380.87 111.55 386.47 117.15 
M 388.9 112.16 396.32 119.58 
M 397.15 112.98 403.39 119.22 
M 407.19 115.6 409.09 117.5 
M 240.98 291.39 239.08 297.7 
M 240.08 294.39 240.86 293.8 241.55 293.5 242.45 293.5 242.95 293.8 243.38 294.39 243.41 295.3 243.23 295.89 242.66 296.8 241.88 297.39 241.19 297.7 240.29 297.7 239.78 297.39 239.36 296.8 
M 246.38 291.39 246.58 291.7 246.98 291.39 246.77 291.1 246.38 291.39 
M 246.05 293.5 244.79 297.7 
M 248.45 293.5 247.19 297.7 
M 248.08 294.7 249.26 293.8 249.95 293.5 250.85 293.5 251.36 293.8 251.39 294.7 250.48 297.7 
M 255.35 293.5 254.66 293.8 253.88 294.39 253.31 295.3 253.13 295.89 253.16 296.8 253.58 297.39 254.08 297.7 254.98 297.7 255.67 297.39 256.45 296.8 257.02 295.89 257.2 295.3 257.17 294.39 256.76 293.8 256.25 293.5 255.35 293.5 
M 259.85 293.5 258.58 297.7 
M 259.49 294.7 260.65 293.8 261.35 293.5 262.25 293.5 262.76 293.8 262.78 294.7 261.89 297.7 
M 262.78 294.7 263.95 293.8 264.64 293.5 265.54 293.5 266.06 293.8 266.08 294.7 265.19 297.7 
M 268.01 295.3 271.61 295.3 271.78 294.7 271.66 294.1 271.45 293.8 270.95 293.5 270.05 293.5 269.36 293.8 268.58 294.39 268.01 295.3 267.83 295.89 267.86 296.8 268.27 297.39 268.78 297.7 269.69 297.7 270.38 297.39 271.15 296.8 
M 274.25 293.5 272.99 297.7 
M 273.89 294.7 275.06 293.8 275.75 293.5 276.64 293.5 277.15 293.8 277.19 294.7 276.28 297.7 
M 279.16 297.1 278.77 297.39 278.99 297.7 279.38 297.39 279.16 297.1 
"/></svg>
