<svg xmlns="http://www.w3.org/2000/svg" width="520" height="320"><rect x="0" y="0" width="520" height="320" fill="floralwhite"/><rect x="10" y="10" width="500" height="300" stroke="black" stroke-width="1" fill="none"/><path stroke="black" stroke-width="1" fill="none" stroke-linecap="round" stroke-linejoin="round" d="
M 192.05 138.46 199.03 135.02 206.03 131.77 213.03 128.67 220.04 125.53 227.04 122.8 234.04 121.17 241.05 119.9 248.05 119.01 255.05 118.3 262.05 117.36 269.06 117.18 276.06 117.18 283.06 117.26 290.06 117.4 297.07 117.87 304.07 119.12 311.07 121.36 318.08 124.34 325.08 127.67 332.08 131.62 339.08 135.58 346.09 139.76 353.09 144.09 360.09 148.28 367.09 152.43 368 152.99 
M 368 207.52 367.09 208.05 360.09 211.88 353.09 215.57 346.09 219.23 339.08 223.14 332.08 226.99 325.08 230.54 318.08 233.88 311.07 237.11 304.07 240.21 297.07 242.49 290.06 244.19 283.06 245.77 276.06 246.45 269.06 246.81 262.05 246.82 255.05 246.41 248.05 245.56 241.05 244.05 234.04 242.36 227.04 240.33 220.04 237.82 213.03 234.88 206.03 231.33 199.07 227.52 
M 194.59 144.17 195.04 143.04 195.04 139.29 194.28 137.36 
M 201.26 171.71 201.94 170.06 201.94 167.09 200.15 162.77 
M 192.15 138.72 192.58 138.2 
M 200.82 169.4 201.57 168.75 204.31 164.02 206.08 158.65 206.08 155.33 204.31 149.97 201.57 145.24 199.43 143.39 
M 197.87 154.61 202.86 152.93 
M 198.67 156.9 202.78 157.08 
M 199.78 160.34 202.43 160.65 
M 205.58 186.98 206.81 185.32 208.48 181.37 208.48 178.92 206.81 174.96 204.23 171.47 202.21 170.11 
M 202.49 177.58 205.59 176.79 
M 202.99 180.09 205.43 180.25 
M 203.15 182.72 205.37 182.82 
M 202.34 157.21 205.49 155.51 209.54 151.17 212.15 146.26 212.15 143.22 209.54 138.3 205.49 133.96 203.55 132.92 
M 199.44 141.88 207.85 141.08 
M 199.2 144.64 207.49 144.43 
M 198.96 147.65 207.75 148.88 
M 207.79 180.39 210.3 178.87 213.51 174.96 215.59 170.53 215.59 167.79 213.51 163.37 210.3 159.46 207.79 157.93 
M 205.56 167.1 212.15 165.87 
M 205.18 169.29 212.25 169.13 
M 205.71 171.17 211.74 172.19 
M 212.96 185.98 211.6 183.57 208.41 180.37 205.91 179.12 
M 203.54 186.93 209.94 185.44 
M 204.83 210.35 206.57 208.88 208.8 205.58 208.8 203.54 208.75 203.47 
M 207.5 145.66 210.56 144.18 214.48 140.39 217.01 136.1 217.01 133.44 214.48 129.15 213.68 128.38 
M 204.16 132.77 212.8 131.92 
M 204.41 134.57 212.52 134.35 
M 204.51 137.24 212.32 137.74 
M 214.34 170.8 216.58 169.22 219.44 165.17 221.29 160.59 221.29 157.75 219.44 153.16 216.58 149.11 214.34 147.53 
M 212.35 156.88 218 155.88 
M 212.46 158.84 217.86 158.91 
M 211.76 161.52 217.99 162.74 
M 219.77 185.08 221.3 181.52 221.3 179.17 219.67 175.36 217.15 172.01 215.18 170.7 
M 213.57 178.21 218.6 177.52 
M 213.46 179.89 218.61 180.31 
M 213.69 182.44 218.34 182.98 
M 210.07 205.72 211.97 204.64 
M 210.59 218.06 212.38 214.96 212.38 212.96 210.5 209.71 207.6 206.85 205.33 205.73 
M 204.41 212.21 209.4 211.57 
M 204.02 213.8 209.07 214.25 
M 204.22 215.68 209.27 216.77 
M 215.07 137.49 218.82 136.38 223.62 133.52 226.71 130.28 226.71 128.28 223.62 125.04 222.69 124.49 
M 216.65 127.05 220.82 126.65 
M 211.63 129.29 221.36 129.02 
M 211.27 131.35 220.78 131.67 
M 218.87 158.89 221.87 157.49 225.71 153.89 228.18 149.82 228.18 147.3 225.71 143.23 221.87 139.63 218.87 138.23 
M 215.85 146.5 223.6 145.68 
M 216.42 148.74 223.41 148.36 
M 215.95 150.29 223.56 151.44 
M 221.29 180.07 223.72 178.69 226.83 175.15 228.83 171.14 228.83 168.66 226.83 164.65 223.72 161.11 221.29 159.73 
M 218.92 167.5 224.87 167.08 
M 219.37 169.89 224.75 170.12 
M 218.6 172.2 225.39 173.36 
M 224.47 184.1 224.35 183.87 221.33 180.67 218.98 179.42 
M 214.39 214.4 216.87 213.23 220.05 210.23 221.69 207.52 
M 211.78 205.94 215.55 205.7 
M 211.72 207.37 218.59 208.23 
M 217.18 220.15 215.37 217.59 211.96 214.83 209.3 213.75 
M 213.41 219.06 213.8 218.98 
M 223.96 131.19 226.98 130.37 230.85 128.26 233.34 125.87 233.34 124.39 230.85 121.99 230.74 121.94 
M 225.07 123.56 228.59 123.63 
M 221.48 125.18 228.73 125.27 
M 221.04 126.76 229.01 127.35 
M 225.58 148.98 228.21 147.78 231.59 144.72 233.76 141.24 233.76 139.09 231.59 135.62 228.21 132.55 225.58 131.35 
M 223.36 138.25 229.38 137.07 
M 223.15 140.59 229.66 139.85 
M 222.76 141.59 230.05 142.48 
M 228.07 170.13 230.13 168.78 232.76 165.3 234.46 161.36 234.46 158.92 232.76 154.99 230.13 151.51 228.07 150.15 
M 226.04 157.83 231.31 157.53 
M 226.34 160.03 231.28 159.79 
M 225.89 162.25 231.14 162.92 
M 232.39 183.22 233.25 181.11 233.25 178.81 231.74 175.1 229.4 171.83 227.57 170.55 
M 226.05 178.53 230.43 176.97 
M 226.24 179.84 230.48 179.51 
M 225.89 182.09 230.85 183.08 
M 221.81 221.41 223.54 219.36 225.15 216.01 225.15 213.93 223.54 210.57 221.04 207.61 220.06 207.03 
M 217.45 213.56 222.15 212.43 
M 217.14 215.31 222.25 215.1 
M 216.8 216.25 222.57 217.49 
M 231.94 126.88 235.22 126.29 239.43 124.78 242.14 123.07 242.14 122.01 239.43 120.3 239.23 120.23 
M 230.4 122.02 237.49 121.67 
M 228.32 122.78 237.19 122.09 
M 228.7 123.51 236.88 123.92 
M 232.55 141.13 235.61 140.17 239.52 137.71 242.05 134.93 242.05 133.21 239.52 130.42 235.61 127.97 232.55 127.01 
M 229.68 133.09 237.53 131.83 
M 230.05 133.73 237.83 133.97 
M 229.59 135.61 237.27 136.17 
M 233.73 159.6 236.38 158.38 239.78 155.28 241.98 151.77 241.98 149.59 239.78 146.08 236.38 142.98 233.73 141.77 
M 231.54 148.62 237.9 148.45 
M 231.16 150.55 237.8 150.5 
M 231.49 152.89 238.26 153.63 
M 233.75 179 236.03 177.72 238.96 174.45 240.85 170.74 240.85 168.44 238.96 164.73 236.03 161.46 233.75 160.18 
M 231.18 167.57 237.22 167.21 
M 231.37 169.44 237.54 169.83 
M 231.3 171.19 237.01 172.7 
M 235.77 182.8 233.34 180.06 231.12 178.81 
M 226.95 214.5 229.23 213.29 231.84 210.52 
M 231.11 223.56 231.11 221.69 228.98 218.34 225.68 215.38 223.1 214.23 
M 220.37 220.59 227.12 220.31 
M 240.3 123.14 242.7 122.76 245.78 121.78 247.77 120.68 247.77 119.99 246.38 119.22 
M 242.78 119.68 244.27 119.7 
M 238.23 120.41 244.11 120.72 
M 237.91 120.54 244.45 120.79 
M 240.23 134.17 242.57 133.43 245.57 131.52 247.5 129.35 247.5 128.01 245.57 125.85 242.57 123.94 240.23 123.19 
M 237.62 127.62 243.56 126.68 
M 237.85 128.44 243.9 128.28 
M 238.06 129.5 244.01 130.69 
M 240.45 150.15 242.64 149.09 245.45 146.35 247.26 143.25 247.26 141.34 245.45 138.24 242.64 135.5 240.45 134.44 
M 238.69 140.56 244.01 139.95 
M 238.27 142.62 244.34 142.17 
M 238.68 143.53 243.73 144.7 
M 240.81 169.11 242.78 167.89 245.3 164.76 246.92 161.21 246.92 159.02 245.3 155.47 242.78 152.34 240.81 151.12 
M 238.9 158.39 244.03 157.26 
M 239.09 160.34 244.23 160.51 
M 239.05 162.21 243.96 162.5 
M 243.01 181.78 244.01 179.27 244.01 177.01 242.56 173.37 240.31 170.16 238.55 168.9 
M 236.92 176.22 241.24 175.71 
M 236.65 178.51 241.81 178.05 
M 237.22 180.23 241.27 181.05 
M 230.33 222.6 232.2 221.35 234.6 218.16 236.14 214.54 236.14 212.3 235.75 211.38 
M 228.19 212.03 232.36 210.68 
M 228.55 213.54 233.45 213.76 
M 228.29 214.95 233.42 216.09 
M 246.97 128.98 249.6 128.41 252.96 126.97 255.13 125.34 255.13 124.33 252.96 122.7 249.6 121.26 246.97 120.69 
M 244.27 124.08 251.01 123.87 
M 244.27 124.5 251.62 125.2 
M 244.33 125.72 250.99 126.21 
M 247.01 142.39 249.57 141.49 252.85 139.19 254.97 136.58 254.97 134.97 252.85 132.37 249.57 130.06 247.01 129.17 
M 244.25 134.08 251.27 133.98 
M 244.76 135.82 250.83 135.95 
M 244.6 137.33 250.77 137.32 
M 247.08 159.55 249.47 158.43 252.52 155.55 254.48 152.29 254.48 150.27 252.52 147.01 249.47 144.13 247.08 143 
M 244.76 149.98 250.72 148.76 
M 244.71 151.36 251.25 150.9 
M 245.15 152.65 250.9 153.95 
M 245.69 177.69 247.88 176.48 250.69 173.37 252.5 169.84 252.5 167.66 250.69 164.13 247.88 161.02 245.69 159.81 
M 243.47 167.33 248.79 166.02 
M 243.21 168.42 249.03 168.46 
M 243.47 170.28 249.48 171.77 
M 246.8 181.18 244.71 178.75 242.57 177.51 
M 238.79 214.01 241.04 212.74 241.35 212.38 
M 243.97 225.91 244.67 224.69 244.67 222.41 242.55 218.73 239.26 215.48 236.69 214.21 
M 234.27 221.23 240.95 220.37 
M 233.94 223.7 240.81 223.52 
M 253.68 123.78 255.68 123.39 258.24 122.41 259.89 121.3 259.89 120.61 258.24 119.5 255.68 118.52 254.71 118.33 
M 252.19 120.06 256.96 120.15 
M 252.05 121.39 256.87 120.91 
M 251.68 121.69 256.81 121.35 
M 253.68 134.82 255.69 134.08 258.27 132.18 259.93 130.03 259.93 128.7 258.27 126.56 255.69 124.66 253.68 123.92 
M 251.61 128.57 256.94 127.44 
M 251.8 129.59 256.86 128.97 
M 251.5 130.81 257.2 131.4 
M 253.68 150.4 255.67 149.37 258.22 146.71 259.86 143.69 259.86 141.83 258.22 138.82 255.67 136.16 253.68 135.12 
M 251.42 141.27 256.59 140.07 
M 252.03 142.35 256.86 143.08 
M 251.31 144.17 256.47 145.46 
M 253.4 168.53 255.19 167.36 257.48 164.37 258.96 160.98 258.96 158.88 257.48 155.49 255.19 152.5 253.4 151.33 
M 251.29 158.03 256.08 157.38 
M 251.38 159.81 256.33 160.22 
M 251.69 161.4 256.21 162.27 
M 254.65 180.09 255.57 177.9 255.57 175.72 254.09 172.2 251.8 169.09 250.01 167.87 
M 247.96 175.27 252.64 174.39 
M 248.14 176.59 252.5 176.45 
M 248.59 178.42 253.16 179.76 
M 243.08 223.42 245.12 222.06 247.74 218.57 249.42 214.62 249.42 213.27 
M 241.44 213.28 245.95 213.01 
M 241.3 215.17 246.37 216.19 
M 245.6 226.17 244.13 225.34 
M 259.88 129.12 262.19 128.56 265.16 127.11 267.07 125.48 267.07 124.47 265.16 122.83 262.19 121.39 259.88 120.82 
M 257.24 123.77 263.7 124.13 
M 257.29 125.32 263.65 124.84 
M 257.73 125.64 263.67 126.03 
M 259.89 142.3 262.19 141.43 265.15 139.2 267.05 136.67 267.05 135.11 265.15 132.58 262.19 130.35 259.89 129.48 
M 257.89 134.82 264.03 134.34 
M 257.85 136.12 263.21 135.86 
M 257.47 137.32 263.19 137.4 
M 259.15 158.49 261.34 157.41 264.14 154.65 265.95 151.53 265.95 149.6 264.14 146.48 261.34 143.72 259.15 142.65 
M 257.33 149.29 262.62 148.12 
M 257.26 150.35 262.45 150.92 
M 257.39 152.2 262.84 152.8 
M 257.08 176.12 259.18 174.92 261.87 171.87 263.6 168.42 263.6 166.28 261.87 162.82 259.18 159.77 257.08 158.58 
M 255.16 165.62 260.62 164.88 
M 255.14 167.72 260.65 167.42 
M 255.45 169.14 260.42 169.53 
M 258.23 179.74 256.03 177.14 253.89 175.87 
M 250.96 213.96 251.64 213.55 
M 257.42 227.26 258.18 225.8 258.18 223.38 256.13 219.46 252.96 216 250.48 214.65 
M 248.53 222.52 254.16 221.33 
M 248.01 224.62 254.43 224.67 
M 248.2 226.33 251.93 226.92 
M 266.01 123.37 267.87 122.98 270.24 121.98 271.78 120.86 271.78 120.16 270.24 119.03 267.87 118.04 266.01 117.65 
M 264.64 119.83 268.83 119.68 
M 264.49 120.21 269.26 120.79 
M 264.09 120.74 268.87 121.38 
M 266.14 134.52 267.99 133.78 270.37 131.88 271.9 129.73 271.9 128.39 270.37 126.24 267.99 124.34 266.14 123.59 
M 264.4 128.38 269.02 127.4 
M 263.9 128.77 269.48 129.26 
M 264.08 130.16 268.83 130.63 
M 266.06 149.46 267.89 148.5 270.23 146.03 271.74 143.23 271.74 141.5 270.23 138.71 267.89 136.24 266.06 135.28 
M 264.58 140.73 268.76 140.19 
M 264.57 142.14 269.1 142.79 
M 264.24 143.46 268.81 144.16 
M 263.48 165.55 265.16 164.42 267.32 161.51 268.72 158.22 268.72 156.18 267.32 152.89 265.16 149.98 263.48 148.85 
M 261.59 155.17 265.93 154.64 
M 261.97 157.62 266.4 157.14 
M 262.04 159.04 266.39 159.47 
M 265.76 179.24 266.82 176.56 266.82 174.32 265.39 170.7 263.16 167.5 261.43 166.25 
M 260 173.58 264.09 172.29 
M 259.4 175.61 264.31 175.83 
M 260.05 177.13 264.01 178.09 
M 256.62 224.84 258.62 223.39 261.17 219.68 262.81 215.48 262.81 214.45 
M 254.72 214.21 255.28 214.17 
M 254.75 216.76 259.89 217.75 
M 259.56 227.33 258.09 226.35 
M 271.77 128.2 273.93 127.64 276.71 126.21 278.49 124.59 278.49 123.58 276.71 121.96 273.93 120.53 271.77 119.97 
M 269.67 123.15 275.47 122.44 
M 269.43 124.2 275.05 123.67 
M 269.53 125.22 275.29 125.2 
M 271.67 141.12 273.81 140.28 276.54 138.11 278.31 135.65 278.31 134.13 276.54 131.67 273.81 129.5 271.67 128.65 
M 269.62 133.42 275.12 133.09 
M 269.63 135.17 274.89 135.18 
M 269.87 136.43 275.47 136.71 
M 270.3 156.61 272.41 155.57 275.12 152.89 276.86 149.86 276.86 147.98 275.12 144.95 272.41 142.27 270.3 141.23 
M 267.98 147.12 274.05 146.36 
M 268.24 148.49 273.62 148.53 
M 268.44 150.4 273.5 151.03 
M 267.9 174.17 270 172.98 272.7 169.91 274.44 166.44 274.44 164.29 272.7 160.82 270 157.76 267.9 156.56 
M 266.16 163.75 270.93 162.6 
M 266.22 165.03 271.72 165.48 
M 266.04 167.38 270.91 168.35 
M 270.41 178.87 270.37 178.8 267.51 175.45 265.27 174.15 
M 269.53 227.35 270.3 225.74 270.3 223.29 268.4 219.34 265.47 215.85 263.18 214.48 
M 261.15 222.9 267.17 221.47 
M 260.91 224.25 266.55 224.2 
M 261.12 226.43 266.45 227.36 
M 277.5 122.01 279.27 121.63 281.54 120.66 283 119.55 283 118.87 281.54 117.76 280.3 117.23 
M 275.44 118.87 279.94 118.3 
M 275.47 119.2 280.33 119.27 
M 275.9 120.2 280.34 120.1 
M 277.43 132.9 279.17 132.17 281.39 130.32 282.82 128.21 282.82 126.91 281.39 124.8 279.17 122.95 277.43 122.22 
M 275.85 126.85 280.23 125.54 
M 275.66 127.46 279.77 127.55 
M 276.15 128.67 280.39 129.2 
M 277.05 147.61 278.76 146.65 280.94 144.2 282.35 141.42 282.35 139.7 280.94 136.92 278.76 134.47 277.05 133.51 
M 275.85 139.58 279.9 138.54 
M 274.97 140.74 279.67 140.87 
M 275.67 141.65 279.71 142.84 
M 274.62 163.83 276.44 162.7 278.76 159.82 280.26 156.56 280.26 154.54 278.76 151.28 276.44 148.4 274.62 147.28 
M 273.02 153.67 277.46 152.89 
M 272.68 155.7 277.77 155.21 
M 272.97 157.21 277.17 158.18 
M 275.9 178.46 276.13 178.13 277.6 174.43 277.6 172.13 276.13 168.42 273.85 165.15 272.07 163.87 
M 270.35 171.32 274.63 170.09 
M 270.36 172.9 274.7 173.01 
M 270.11 174.93 275.22 175.81 
M 268.68 223.86 270.68 222.45 273.25 218.83 274.61 215.43 
M 266.56 215.77 272.24 216.83 
M 271.64 227.25 271 226.27 269.32 224.99 
M 282.92 126.46 284.97 125.91 287.58 124.52 289.27 122.93 289.27 121.95 287.58 120.37 284.97 118.97 282.92 118.42 
M 281.36 121.69 285.98 121.22 
M 280.57 122.58 286.01 122.05 
M 280.84 123.53 286.02 123.52 
M 282.58 139.24 284.62 138.39 287.23 136.22 288.92 133.76 288.92 132.24 287.23 129.78 284.62 127.61 282.58 126.76 
M 280.68 131.88 285.54 131.36 
M 280.45 133.18 286.14 132.84 
M 280.89 133.87 285.89 135.21 
M 281.51 155.15 283.62 154.09 286.33 151.37 288.08 148.29 288.08 146.38 286.33 143.3 283.62 140.58 281.51 139.52 
M 279.44 145.94 284.46 145.4 
M 279.23 147.75 285.32 147.37 
M 279.28 149.1 284.7 149.99 
M 279.37 173.14 281.62 171.91 284.5 168.74 286.35 165.16 286.35 162.94 284.5 159.36 281.62 156.2 279.37 154.96 
M 277.49 162.24 282.7 161.49 
M 277.01 163.85 283.23 164.5 
M 277.63 166.02 283.28 166.88 
M 283.26 178.13 280.19 174.77 277.7 173.41 
M 281.12 226.65 282.23 224.56 282.23 222.27 280.27 218.58 277.44 215.54 
M 272.74 221.47 278.31 220.47 
M 272.57 223.55 278.99 223.03 
M 272.33 225.58 278.51 226.22 
M 288.6 120.22 290.25 119.85 292.36 118.91 293.73 117.85 293.73 117.65 
M 286.94 117.5 288.47 117.37 
M 287.32 118.14 291.37 118.45 
M 288.16 130.71 289.81 130 291.93 128.18 293.3 126.12 293.3 124.85 291.93 122.79 289.81 120.97 288.16 120.26 
M 286.52 124.56 291.21 124.19 
M 286.14 125.78 290.57 125.29 
M 286.73 126.77 290.82 127.5 
M 287.68 145.73 289.39 144.74 291.58 142.18 292.99 139.28 292.99 137.49 291.58 134.6 289.39 132.04 287.68 131.04 
M 286.19 136.83 290.4 135.89 
M 286.08 138.76 290.33 138.52 
M 285.58 139.92 290.3 141.03 
M 286.68 163.43 288.5 162.26 290.83 159.27 292.33 155.88 292.33 153.78 290.83 150.39 288.5 147.4 286.68 146.24 
M 284.86 153.13 289.23 152.25 
M 284.63 155.07 289.55 154.55 
M 284.65 156.66 289.64 157.15 
M 288.9 177.67 290.58 173.78 290.58 171.32 288.86 167.35 286.2 163.83 284.12 162.46 
M 282.25 170.54 287.47 169.91 
M 281.9 172.33 287.69 172.45 
M 282.11 174.72 287.5 175.43 
M 282.34 223.58 284.69 222.33 287.71 219.12 289.65 215.49 289.65 214.68 
M 279.61 216.09 285.77 217.47 
M 282.92 226.51 280.99 224.15 279.11 223 
M 293.22 124.04 295.23 123.48 297.81 122.05 299.47 120.43 299.47 119.43 298.05 118.05 
M 291.51 119.12 296.19 118.59 
M 290.94 120.31 296.74 119.75 
M 290.89 120.75 296.85 121.34 
M 293.16 137.24 295.24 136.37 297.89 134.12 299.6 131.57 299.6 129.99 297.89 127.44 295.24 125.19 293.16 124.31 
M 290.79 129.07 296.5 128.64 
M 291.09 130.35 296.21 130.93 
M 291.39 132.51 296.4 133.04 
M 292.74 154.03 294.89 152.91 297.65 150.03 299.43 146.78 299.43 144.76 297.65 141.5 294.89 138.63 292.74 137.5 
M 290.7 144.5 295.81 143.2 
M 290.35 146.11 296.65 145.56 
M 291.03 147.08 296.01 148 
M 291.85 173.52 294.22 172.19 297.25 168.79 299.21 164.94 299.21 162.56 297.25 158.71 294.22 155.31 291.85 153.98 
M 289.2 162.07 295.48 160.62 
M 289.95 164.08 296.09 163.38 
M 289.39 165.69 296.11 167.13 
M 296.42 177.81 294.38 175.57 291.76 174.13 
M 291.29 215.99 293.97 214.69 
M 296.41 223.93 296.41 222.99 294.24 219.59 290.87 216.58 288.24 215.41 
M 285.67 222.14 292.89 221.82 
M 285.5 224.17 292.29 224.42 
M 298.13 128.27 299.85 127.51 302.06 125.55 303.49 123.33 303.49 121.95 302.06 119.73 300.7 118.52 
M 296.9 121.47 300.51 120.94 
M 296.68 122.41 300.56 122.19 
M 296.02 123.68 300.46 124.71 
M 298.69 144.27 300.51 143.23 302.84 140.56 304.35 137.54 304.35 135.67 302.84 132.65 300.51 129.99 298.69 128.95 
M 297.04 134.9 301.37 134.05 
M 297.05 136.74 302.02 136.78 
M 297.24 137.77 301.55 139.04 
M 297.89 162.7 299.72 161.41 302.07 158.12 303.58 154.4 303.58 152.09 302.07 148.37 299.72 145.08 297.89 143.79 
M 296.29 151.47 300.85 150.77 
M 296.3 152.84 300.79 152.9 
M 296.48 155.18 301.11 155.86 
M 304.96 176.88 305.45 175.71 305.45 173.04 303.65 168.72 300.86 164.91 298.69 163.43 
M 296.16 172.03 302.37 170.9 
M 296.4 174.03 301.81 174.7 
M 296.68 176.31 300.43 177.36 
M 304.37 221.95 305.98 219 305.98 216.77 304.54 214.13 
M 296.35 215.64 302.28 214.97 
M 296.15 218.06 302.04 217.66 
M 296.23 219.28 302.63 220.63 
M 303.9 122.13 306.08 121.54 308.15 120.42 
M 304.43 135.98 306.71 135.07 309.62 132.73 311.5 130.08 311.5 128.44 309.62 125.79 306.71 123.45 304.43 122.53 
M 302.22 127.77 307.9 127.64 
M 302.01 129.03 308.22 129.33 
M 302.35 130.39 307.81 131.1 
M 304.42 153.32 306.78 152.14 309.8 149.13 311.75 145.72 311.75 143.61 309.8 140.2 306.78 137.19 304.42 136.01 
M 301.87 143.24 307.87 142.24 
M 301.88 144.5 308.28 145.11 
M 302.26 146.63 308.5 146.93 
M 304.68 174.15 307.15 172.74 310.3 169.15 312.33 165.08 312.33 162.56 310.3 158.49 307.15 154.9 304.68 153.5 
M 302.42 161.41 308.43 160.94 
M 302.18 164.07 308.41 163.91 
M 302.51 165.51 308.23 167 
M 308.51 176.8 308.17 176.39 305.68 174.89 
M 305.79 217.93 308.31 216.55 311.2 213.41 
M 307.84 220.81 305.24 218.45 302.7 217.3 
M 309.96 127.53 311.93 126.73 314.46 124.7 315.49 123.24 
M 308.34 120.74 308.92 120.67 
M 307.64 121.62 312.6 122.01 
M 307.77 122.64 312.81 123.09 
M 310.96 143.86 313.02 142.81 315.66 140.1 317.36 137.04 317.36 135.15 315.66 132.08 313.02 129.38 310.96 128.33 
M 309.25 134.35 314.47 134.18 
M 308.67 136.21 314.41 135.94 
M 308.92 137.35 314.58 138.56 
M 310.14 162.45 312.28 161.13 315.04 157.74 316.81 153.9 316.81 151.52 315.04 147.68 312.28 144.29 310.14 142.97 
M 307.89 151.08 313.35 149.51 
M 308.08 152.5 313.39 152.62 
M 307.85 154.34 313.77 155.97 
M 317.96 177.46 318.4 176.32 318.4 173.59 316.7 169.2 314.08 165.31 312.03 163.8 
M 309.94 172.53 315.33 171.78 
M 310.18 175.11 315.25 174.93 
M 318.37 217.35 317.03 214.3 315.58 212.41 
M 310.38 217.67 315.77 216.1 
M 310.8 219 313.12 219.08 
M 317.38 136.44 319.86 135.49 323.05 133.05 325.1 130.29 325.1 128.58 324.08 127.2 
M 315.02 127.79 320.98 127.69 
M 315.36 129.48 321.24 129.4 
M 315.31 130.58 321.11 131.5 
M 317.9 154.17 320.5 152.98 323.83 149.92 325.98 146.46 325.98 144.31 323.83 140.85 320.5 137.79 317.9 136.59 
M 315.39 143.78 322.34 142.93 
M 315.27 145.39 321.72 145.02 
M 315.12 147.11 321.67 147.58 
M 318.15 174.64 320.68 173.27 323.93 169.75 326.03 165.76 326.03 163.29 323.93 159.3 320.68 155.78 318.15 154.4 
M 315.67 162.82 321.86 161.56 
M 315.6 164.25 322.18 164.7 
M 315.54 166.89 322.59 167.65 
M 321.09 177.11 320.64 176.54 318.36 175.08 
M 318.11 217.43 320.3 216.06 323.09 212.56 323.57 211.52 
M 316.89 217.84 315.24 216.99 
M 323.43 128.62 325.38 127.84 
M 325.15 145.76 327.31 144.64 330.09 141.78 331.87 138.54 331.87 136.53 330.09 133.29 327.31 130.43 325.15 129.31 
M 323.07 136.11 328.99 134.77 
M 322.84 137.19 328.51 137.34 
M 323.33 138.87 328.41 140.41 
M 325.35 164.62 327.65 163.34 330.59 160.06 332.49 156.34 332.49 154.04 330.59 150.33 327.65 147.05 325.35 145.77 
M 323.3 153.67 329.06 152.71 
M 322.89 155.43 329.5 154.99 
M 322.81 156.76 328.87 158.34 
M 331.09 176.66 331.16 176.47 331.16 174 329.54 169.99 327.03 166.46 325.07 165.08 
M 323.4 173.17 328.61 172.16 
M 323.44 175.06 328.37 175.05 
M 322.84 177.03 323.14 177.08 
M 328.07 214.07 327.46 212.5 326.48 211.05 
M 322.34 215.88 325.95 214.2 
M 331.06 137.63 333.54 136.64 336.62 134.19 
M 328.5 130.23 329.65 130.25 
M 328.93 131.66 332.88 132.07 
M 332.18 155.7 334.75 154.51 338.05 151.45 340.17 147.99 340.17 145.84 338.05 142.38 334.75 139.32 332.18 138.13 
M 329.75 145.11 336.08 144.4 
M 329.7 147.22 336.2 146.71 
M 329.66 149.11 336.36 149.71 
M 331.79 174.91 334.25 173.62 337.39 170.32 339.42 166.57 339.42 164.25 337.39 160.51 334.25 157.2 331.79 155.91 
M 329.25 163.46 335.97 162.85 
M 329.69 165.63 335.86 165.72 
M 329.07 167.39 335.7 168.67 
M 332.76 176.66 332.3 176.09 330.11 174.72 
M 332.16 212.65 333.76 210.58 334.41 209.12 
M 338.73 146.74 340.72 145.6 343.27 142.69 344.91 139.38 344.91 139.06 
M 337.09 136.72 340.25 136.28 
M 337.26 138.08 342.02 138.38 
M 336.39 140.42 342.02 141.04 
M 339.47 165.68 341.6 164.44 344.33 161.27 346.09 157.68 346.09 155.46 344.33 151.87 341.6 148.7 339.47 147.46 
M 337.49 155.06 342.82 153.56 
M 337.17 156.33 343.22 156.68 
M 337.79 158.64 343.28 159.5 
M 342.04 177.8 342.85 175.79 342.85 173.52 341.37 169.85 339.07 166.61 337.27 165.35 
M 335.3 172.94 339.95 172.1 
M 335.47 174.24 340.46 174.81 
M 339.93 177.36 340.18 177.39 
M 338.28 210.32 338.23 210.17 336.8 207.97 
M 345.4 156.15 347.83 154.96 350.95 151.91 352.96 148.45 352.96 146.31 350.95 142.85 350.71 142.62 
M 343.26 145.67 349.56 144.63 
M 342.76 147.2 349.45 147.42 
M 343.04 149.37 349.26 149.98 
M 344.36 174.37 346.72 173.13 349.75 169.94 351.71 166.32 351.71 164.09 349.75 160.48 346.72 157.29 344.36 156.04 
M 341.98 163.66 347.98 162.23 
M 342.4 164.96 347.74 165.21 
M 341.7 167.41 348.25 168.25 
M 346.26 177.81 343.93 175.09 341.66 173.76 
M 346.29 207.24 347.26 205.18 347.26 204.58 
M 341.92 206.69 344.01 206.98 
M 350.73 146.21 352.68 145.04 353.34 144.24 
M 352.68 165.96 354.71 164.74 357.32 161.63 359.01 158.1 359.01 155.92 357.32 152.39 354.71 149.27 352.68 148.06 
M 350.79 155.17 355.82 154.74 
M 350.42 156.82 356.25 156.62 
M 351.03 158.73 355.7 159.8 
M 352.47 177.23 353.99 173.73 353.99 171.46 352.4 167.8 349.93 164.56 348.01 163.3 
M 346.31 171.06 351.45 169.89 
M 346.36 172.44 351.35 172.15 
M 346.49 174.07 350.68 175.49 
M 348.3 206.53 347.42 205.31 346.55 204.7 
M 358.23 156.22 360.65 155.03 363.75 151.97 364.4 150.84 
M 356.14 147.04 358.06 147.07 
M 355.81 149.36 361.99 150.28 
M 357.05 174.27 359.5 173.03 362.65 169.85 364.68 166.24 364.68 164.01 362.65 160.4 359.5 157.22 357.05 155.98 
M 354.58 162.92 361.25 162.65 
M 355.13 165 361.29 164.81 
M 354.54 166.75 361.33 167.72 
M 359.72 178.1 356.78 174.97 354.29 173.64 
M 360.32 202.26 359.81 201.27 
M 351.3 203.59 355.83 203.87 
M 365.7 166.33 367.71 165.1 368 164.74 
M 363.6 155.34 368 154.74 
M 363.9 157.44 368 157.12 
M 363.33 159.03 368 160.13 
M 366.22 179.15 366.86 178.42 368 176.13 
M 368 171.13 366.86 168.84 364.02 165.61 361.8 164.35 
M 360.04 171.8 365.61 170.79 
M 359.35 173.31 365.45 173.31 
M 359.33 175.04 365.16 176.46 
M 363.63 201.01 364.43 199.99 
M 367.87 167.32 368 167.34 
M 194.28 137.36 194.28 137.36 
M 201.2 223.61 203.21 220.84 203.21 218.93 202.82 218.39 
M 203.56 215.54 204.22 215.68 
M 205.52 226.1 204.2 224.05 201.9 222.03 
M 216.65 127.05 216.65 127.05 
M 211.31 228.78 211.96 228.52 215.37 225.76 217.57 222.64 217.57 220.71 217.18 220.15 
M 206.88 220.41 213.41 219.06 
M 206.36 221.94 213.99 221.4 
M 230.74 121.94 230.74 121.94 
M 220.21 232.26 221.16 230.82 221.16 228.98 219.2 226 216.15 223.37 213.78 222.34 
M 211.13 228.42 217.71 227.37 
M 223.1 231.22 225.68 230.06 228.98 227.11 231.11 223.76 231.11 223.56 
M 220.21 224.42 227.58 225.49 
M 225.95 234.1 223.14 232.19 220.17 231.18 
M 246.38 119.22 246.38 119.22 
M 236.69 232.9 239.26 231.63 242.55 228.38 243.97 225.91 
M 234.57 225.48 240.55 225.92 
M 254.71 118.33 254.71 118.33 
M 249.43 239.38 251.15 235.94 251.15 233.64 249.28 229.91 246.39 226.62 245.6 226.17 
M 242.3 234.74 247.89 234.44 
M 250.48 234.53 252.96 233.18 256.13 229.72 257.42 227.26 
M 251.93 226.92 254.68 227.35 
M 262.85 240.34 264.2 237.17 264.2 234.82 262.58 231.01 260.06 227.66 259.56 227.33 
M 256.46 234.27 261.49 233.28 
M 255.88 235.62 261.35 236.43 
M 268.95 240.33 268.35 239.22 265.55 236.28 263.35 235.14 
M 267.4 232.64 271.78 231.46 
M 267.54 234.76 272.21 234.42 
M 267.6 235.99 272.09 237.4 
M 274.86 232.79 277.24 231.51 280.27 228.25 281.12 226.65 
M 288.47 117.37 288.47 117.37 
M 279.33 239.69 280.99 238.68 283.39 235.75 284.93 232.44 284.93 230.39 283.39 227.07 282.92 226.51 
M 298.17 235.93 299.62 233.44 299.62 231.55 297.85 228.5 295.1 225.81 292.95 224.75 
M 291.23 230.68 296.29 230.21 
M 290.69 232.66 296.55 232.52 
M 291.19 233.77 296.11 235.23 
M 300.31 224.09 306.81 222.77 
M 299.88 225.71 306.57 225.8 
M 300.09 227.46 306.44 228.2 
M 315.49 123.24 315.49 123.24 
M 313.12 219.08 315.35 219.15 
M 310.55 220.79 316.13 221.79 
M 311.94 230.97 311.19 229.58 308.67 226.94 306.71 225.91 
M 304.86 232.32 309.55 231.58 
M 324.08 127.2 324.08 127.2 
M 312.92 223.46 318.73 222.69 
M 313.37 225.77 319.08 225.71 
M 313.19 227.07 318.64 228.02 
M 325.38 127.84 325.38 127.84 
M 325.33 225.28 327.46 222.13 328.88 218.45 328.88 216.17 328.07 214.07 
M 322 217.12 326.31 217.29 
M 322.34 218.76 326.39 220.28 
M 329.65 130.25 329.65 130.25 
M 324.54 222.57 330.54 221.81 
M 324.88 224.21 327.68 224.22 
M 333.01 217.6 336.8 218.47 
M 342.39 217.11 340.93 215.52 338.67 214.29 
M 351.41 212.77 351.41 212.51 349.85 208.69 348.3 206.53 
M 344.02 213.39 348.19 213.98 
M 364.4 150.84 364.4 150.84 
M 357.48 209.93 358.44 208.87 360.46 204.96 360.46 202.54 360.32 202.26 
M 362.25 207.65 360.69 205.72 358.58 204.43 
M 220.04 125.53 220.04 125.53 
M 223.95 124.01 227.52 72.86 229.6 71.09 231.1 68.73 231.99 65.76 233.95 63.87 236.02 62.08 238 60.2 242.08 56.63 244.77 55.59 250.06 53.41 252.03 51.53 254.03 49.67 255.99 47.78 258.14 46.06 259.66 43.73 261.76 41.98 266.68 39.29 269.41 38.42 274.16 35.96 276.42 34.57 278.39 32.9 280.93 31.79 282.78 30 288.84 30.8 291.47 32.05 293.2 32.42 297.57 34.78 299.44 36.21 302.52 38.86 304.34 40.25 308.03 44.1 307.93 46.72 308.19 49.68 309.11 53.3 308.43 55.33 309.22 58.82 308.56 60.86 308.51 63.52 308.68 66.39 309.38 71.08 294.62 117.71 
M 290.07 117.4 290.06 117.4 
M 228.58 122.44 229.19 120.39 229.74 118.48 229.38 115.92 229 113.21 229.03 111.34 229.08 108.88 229.45 106.72 228.53 103.95 228.03 100.78 227.99 99.18 228.77 97.44 229.2 95.07 229.87 92.78 230.74 90.07 
M 237.47 120.55 238.86 118.97 239.38 116.49 238.92 113.81 239.41 111.77 239.45 109.53 239.29 106.4 239.71 102.78 240.09 99.91 239.65 97.71 239.62 95.73 239.61 93.73 240.06 91.1 239.61 86.83 240.97 84.31 241 81.18 240.97 79.2 241.5 76.88 241.78 74.44 
M 241.95 119.78 243.41 118.26 243.66 115.77 243.61 113.04 243.29 110.69 243.67 108.32 244.75 104.91 245.71 101.97 246.49 99.11 246.95 97.05 246.69 95.1 246.6 92.78 247.05 89.79 246.92 87.31 247.15 84.84 247.25 81.75 247.6 79.39 
M 250.97 118.71 252.38 116.72 252.99 114.13 253.85 111.46 254.36 108.74 254.73 106.1 254.82 103.38 255.54 101.11 256.03 98.37 257.07 95.86 257.66 93.5 258.23 90.99 258.43 88.39 258.39 85.46 258.61 82.65 259.28 80.36 259.84 78.81 259.22 77.25 259.59 74.34 260.4 70.36 259.94 67.05 260.38 64.71 262.15 62.31 263.09 60.03 263.22 58.56 263.34 54.8 264.15 52.15 264.47 48.99 264.88 46.45 265.28 43.95 
M 255.49 118.24 256.58 116.17 257.42 113.75 258.25 111.37 259.04 109.3 258.97 106.57 259.42 103.49 260.3 100.86 260.86 98.19 261.08 95.8 261.43 92.77 261.5 89.97 262.83 88.43 264.09 86.48 264.27 83.97 264.84 81.01 264.71 78.22 265.52 75.83 265.2 73.34 265.1 69.84 265.2 66.87 266.37 64.06 267.25 61.55 268.07 59.58 268.62 56.91 269.07 54.69 269.47 51.76 270.54 49.3 270.93 46.64 270.64 43.65 
M 264.53 117.3 265.52 115.4 266.32 113.19 267.08 110.91 267.86 108.43 268.76 106.14 269.32 103.54 270.36 100.78 271.14 98.22 271.93 95.6 272.34 92.22 273.12 89.69 274.06 88.22 274.34 85.76 274.88 82.71 276.44 80.63 276.8 78.06 276.53 75.81 276.83 72.7 276.8 69.25 277.32 67.58 277.49 65.49 278.55 61.84 
M 269.07 117.18 270.25 115.07 270.98 113.08 272.69 110.83 273.75 108.35 274.24 106.19 275.25 103.75 276.22 101 277.01 98.31 277.75 95.64 278.75 93.45 279.99 91.04 280.13 87.89 280.97 84.95 282.08 83.09 282.79 80.16 282.96 78.22 283.43 76.83 283.77 74.05 284.72 71.72 285.62 67.97 287.19 64.86 288.1 62.64 288.42 60.33 287.6 56.71 289.67 54.36 290.04 52.29 290.39 51.2 291.5 49.21 292.09 44.97 293.18 41.37 
M 278.16 117.2 279.63 115.44 280.47 112.82 281.66 110.26 282.82 107.83 283.42 105.29 283.85 102.4 284.81 99.83 285.31 97.69 286.67 95.85 288 92.77 288.93 90.48 290 88.5 291.02 86.13 292.25 82.89 292.85 80.5 293.73 78.4 295.35 76.21 296.11 73.98 297.25 70.83 298.78 67.74 299.77 65.81 301.05 63.58 301.81 59.96 303.18 58.66 303.9 56.06 303.71 53.67 303.75 50.68 
M 287.25 117.34 288.95 115.55 290.44 113.7 291.67 111.87 292.55 109.83 293.31 107.06 294.19 103.85 295.36 100.83 297.07 99.07 298.15 97.07 299.05 96.01 299.64 94.13 300.03 91.14 301.34 88.82 302.63 86.23 304.02 83.64 304.63 80.97 
M 203.24 187.34 204.9 187.09 207.74 186.63 210.6 186.21 213.16 185.96 215.77 185.71 218.58 185.32 221.42 184.75 223.99 184.2 226.67 183.67 229.44 183.35 232.51 183.21 235.39 182.87 238.17 182.36 240.76 182.05 243.53 181.71 246.27 181.24 248.76 180.94 251.21 180.57 253.84 180.22 256.87 179.75 259.76 179.74 262.46 179.69 265.6 179.25 268.37 179.08 271.35 178.78 273.99 178.43 276.41 178.47 278.95 178.62 281.91 178.23 285.05 177.99 288.06 177.63 290.89 177.77 293.47 177.84 295.86 177.78 298.18 177.89 301.02 177.22 303.7 176.82 306.5 176.95 309.46 176.72 312.38 176.67 315.01 177.27 318.13 177.47 320.89 177.11 323.43 177.08 325.93 177.29 328.48 177.23 330.55 176.66 332.89 176.66 335.95 176.75 338.91 177.15 342.1 177.81 344.9 177.95 347.91 177.64 350.96 177.35 353.95 177.11 356.76 177.27 359.13 177.92 361.56 178.67 364.05 179.21 366.85 179.13 369.27 179.07 372.06 179.06 374.84 178.99 377.77 179.54 380.55 180.12 383.71 179.98 386.67 180.14 389.34 180.94 392.19 181.07 394.89 180.67 396.54 180.43 399.11 180.96 405.03 180.95 380.2 193.5 377.64 194.41 375.09 195.34 372.65 196.36 370.38 197.57 367.95 198.62 365.51 199.65 362.86 200.47 360.1 201.19 354.67 202.67 351.96 203.37 349.38 204.2 346.49 204.71 344.2 205.83 341.72 206.77 338.86 207.3 336.28 208.14 334.04 209.31 328.91 210.73 326.2 211.09 323.56 211.52 320.72 211.75 318.2 212.3 315.27 212.43 312.91 213.14 310.26 213.56 304.77 214.11 302.01 214.32 299.21 214.49 296.49 214.73 293.47 214.68 290.46 214.64 287.65 214.8 282.76 215.79 279.94 215.56 277.32 215.54 274.62 215.43 272.14 215.55 269.33 215.33 266.3 214.9 263.3 214.49 260.44 214.23 255.4 214.19 252.54 213.68 249.81 213.3 247.28 213.12 244.58 212.77 241.95 212.49 239.04 211.93 233.44 211 210.41 204.18 205.27 201.99 204.97 201.77 
M 203.22 188.89 204.95 188.72 207.92 188.41 210.7 188.16 213.36 188.07 216.05 188.07 218.83 187.9 221.53 187.52 224.13 187.22 227 186.89 229.74 186.56 232.69 186.59 235.39 186.43 238.35 186.01 241.23 185.99 243.91 185.91 246.73 185.6 249.28 185.14 251.59 184.82 254.24 184.64 257.29 184.58 260.08 184.34 262.8 184.09 265.62 184.04 268.34 183.91 271.07 184.13 273.77 184.2 276.98 184.52 280.1 184.83 282.77 184.78 285.59 184.86 288.47 184.19 291.29 184.25 293.84 184.39 296.23 184.35 298.75 184.02 
M 205.04 190.39 207.96 190.25 210.78 190.23 213.39 190.26 216.22 190.44 218.94 190.26 221.92 190.22 224.58 189.82 227.38 189.74 230.28 189.87 232.81 189.79 235.52 189.77 238.39 189.62 241.56 189.6 244.46 189.65 247.18 189.64 249.65 189.87 252.04 189.77 254.7 189.74 257.34 189.3 260.53 189.58 263.25 189.49 266.09 189.72 268.64 189.93 271.19 189.95 273.92 190.37 277.1 190.32 280.1 190.87 283.15 191.12 285.22 191.57 287.86 191.91 290.29 191.91 293.26 192.55 296.33 193.11 299.11 193.54 301.68 193.59 304.1 193.26 307.28 193.59 
M 205.04 192.09 207.91 192.07 210.7 192.33 213.53 192.51 216.35 192.82 219.16 192.92 222.23 192.93 225.03 192.87 227.87 192.99 230.6 193.26 232.85 193.43 235.41 193.37 238.46 193.54 241.49 193.43 244.55 193.43 247.38 193.66 249.96 194.29 252.46 195.14 255.07 195.5 258.06 195.46 261.02 195.19 263.39 195.44 266.13 195.52 268.63 195.85 271.12 196.49 274.01 196.66 276.55 196.98 279.99 197.99 283.11 198.77 285.44 199.25 
M 203.67 193.7 205.02 193.81 207.87 193.91 210.67 194.39 213.5 194.81 216.44 195.02 219.18 195.41 222.17 195.94 225.23 196.37 228.19 196.56 230.86 196.8 233.08 196.93 235.28 197.17 238.32 197.58 241.32 197.73 244.35 197.83 247.31 198.49 249.76 199.3 252.35 199.79 255.18 200.33 257.82 200.8 260.22 201.23 262.25 201.8 265.37 202.17 268.4 202.62 271.19 203.2 273.88 203.75 276.95 204.87 279.83 205.94 282.15 207.19 284.86 207.99 286.66 208.84 288.89 209.44 291.67 210.25 294.74 211.46 297.83 212.09 300.5 212.63 303.16 213.08 
M 204.99 195.59 207.75 195.95 210.6 196.57 213.48 197.27 216.38 197.49 219.28 198 222.3 198.98 225.38 199.38 228.09 200 230.35 200.2 232.67 200.75 235.66 201.39 238.45 201.9 240.87 202.69 243.85 203.07 246.46 203.93 
M 204.26 197.19 204.98 197.36 207.85 198.13 210.6 198.9 213.55 199.66 216.32 200.12 219.2 200.9 222.27 201.99 225.37 202.88 228.36 203.65 230.19 204.28 232.61 205.03 235.58 206.26 238.34 207.11 240.84 207.9 242.97 208.59 245.47 209.45 248.32 210.66 
M 204.59 199.15 205 199.31 207.96 200.28 210.75 201.2 213.41 202.29 216.39 203.21 
M 213.03 234.88 215.84 239.01 217.4 242.83 217.8 246.28 218.66 249.05 220.95 252.02 222.54 253.32 225.11 255.48 226.82 258.3 221.03 263.83 221.15 267.52 219.07 272.69 217.31 274.78 215.2 276.51 211.31 277.51 205.51 280 204.98 276.76 204.83 274.28 205.07 271.15 205.25 267.29 205.26 264.52 205.51 261.61 206.42 258.77 207.23 255.39 206.82 252.62 206.31 249.84 205.7 246.51 206 244.21 206.14 241.74 206.02 238.59 206.15 235.36 206.03 231.33 
M 211.41 234.06 213.4 238.13 214.21 241.99 215.17 245.14 215.78 248.38 
M 209.79 233.24 211.25 237.24 211.49 240.78 212.09 244.16 213.22 246.92 213.51 250.01 214.43 252.51 215.21 255.51 215.57 258.47 216.83 261.21 216.49 264.98 
M 208.17 232.41 208.75 236.54 209.05 239.95 209.39 242.88 209.57 245.52 209.86 248.57 210.29 251.68 211.71 254.53 212.19 257.28 211.75 259.97 212.24 262.48 
M 325.08 230.54 330.63 235.91 336.41 240.67 335 252.08 332.7 253.53 327.63 256 325.27 257.44 322.6 258.58 319.75 259.53 315.17 262.58 313.15 264.36 311.58 266.25 308.91 267.03 303.54 268.58 300.17 268.63 294.72 269.21 292.69 269.49 290.3 269.4 285.71 268.71 276.37 257.32 274.07 252.44 269.06 246.81 
M 316.87 234.44 320.37 237.44 323.68 239.91 326.77 243.15 329.33 245 
M 308.6 238.21 311.82 241.22 313.64 243.37 
M 300.14 241.49 303.6 244.94 306.26 247.29 307.79 250.35 309.45 253.12 311.31 255.43 312.1 258.46 
M 295.78 242.8 299.25 246.87 301.28 249.75 303.14 252.65 
M 286.94 244.89 290 248.06 292.88 250.35 295.3 253.51 
M 282.49 245.83 284.7 249.67 287.4 251.87 290.82 254.26 292.61 257.67 293.48 260.79 294.1 263.5 295.45 267.35 
M 273.44 246.59 276.8 250.13 277.71 253.57 278.37 255.89 280.39 258.58 
M 367.09 152.43 370.21 151.45 372.74 150.01 375.24 149.03 377.61 148.06 380.31 147.01 382.68 145.57 384.82 143.65 387.05 142.18 389.02 141.05 391.19 139.93 393.23 137.92 395.58 136.3 398.3 134.97 400.17 133.35 402.35 131.46 404.91 129.9 406.73 129.06 409.3 127.71 412.22 126.15 414.36 124.58 416.65 122.54 418.44 121.5 421.39 119.56 423.33 117.75 426.07 116.14 428.42 115.08 430.86 114.3 432.75 112.94 434.9 111.32 437.2 109.27 440.17 108.08 442.55 106.44 445.34 105.45 447.49 104 448.72 101.04 451.02 100.01 453.61 98.14 455.89 97.04 457.53 95.81 460.2 93.79 462.76 90.94 465.7 89.47 469.01 89.07 445.83 113.44 444.72 115.77 444.19 118.69 443.25 121.2 442.94 124.34 440.68 129.02 439.96 131.83 439.47 134.85 436.45 139.14 434.41 140.96 430.41 144.6 429.66 147.4 427.56 152.26 426.91 154.6 425.67 159.55 425.27 162.42 426.26 169.65 425.15 174.46 424.88 179.97 424.13 185.12 423.57 189.84 426.21 197.6 427.17 199.9 428.2 203.76 428.37 205.68 428.85 210.43 430.26 217.46 431.63 220.36 433.26 225.15 433.92 227.94 433.19 231.38 434.87 233.73 436.12 235.66 439.9 241.14 441.51 244.27 442.08 246.36 442.97 248.76 444.63 251.95 445.93 255.24 467.88 279.77 465.63 276.48 462.36 275.4 460.92 275.25 458.14 273.61 455.52 272.17 453.74 270.74 451.61 267.26 448.79 264.75 445.83 262.82 443.46 261.61 442.69 261.59 440.16 260.18 437.65 258.33 435.83 256.98 433.59 255.22 431.8 253.31 428.08 250.45 425.07 248.72 422.83 247.22 421.79 246.28 420.63 245.22 418.5 243.37 416.09 241.62 412.47 239.77 409.25 237.24 406.87 235.41 405.11 234.64 402.48 233.12 400.39 231.07 398.6 229.01 396.31 227.79 393.92 226.48 391.48 225.31 388.91 223.68 386.26 222.1 383.83 220.59 381.24 218.82 379.11 217.06 376.94 215.42 374.99 213.53 372.66 211.73 370.13 209.92 367.09 208.05 
M 373.25 153.48 375.59 152.41 377.97 151.39 380.56 150.4 383.18 149.48 386.26 147.94 388.45 146.82 390.48 145.68 392.27 144.59 395.12 143.52 397.76 142.6 400.66 140.41 402.83 138.87 404.91 137.75 406.81 135.69 409.62 134.17 412.83 133.45 415.8 132.4 418.58 130.74 421.57 128.91 423.62 126.7 425.76 125.79 427.65 125.4 
M 373.42 156.55 375.78 155.49 378.21 154.45 380.9 153.38 383.88 152.83 386.35 151.94 388.89 150.3 391.26 149.13 393.62 148.41 396.09 147.36 399.59 146.65 402.42 145.94 404.91 143.39 407.09 141.25 408.71 139.92 
M 370.33 160.54 373.4 159.93 376.3 159.29 378.69 158.38 381.56 157.3 384.2 156.53 386.64 155.48 389.73 154.5 392.47 153.2 394.88 152.56 398.23 151.71 400.98 150.87 
M 376.42 162.56 379.37 162.16 381.59 161.44 384.56 160.59 387.39 159.38 390.17 158.62 393.04 157.3 396.37 156.55 399.34 155.41 402.35 153.75 404.11 154.07 405.56 152.78 408.54 151.51 411.91 150.42 414.28 150.86 416.08 150.11 418.83 149.15 421.2 148.82 424.47 146.89 
M 373.1 165.78 376.58 165.54 379.66 165.5 382.79 164.84 384.79 164.29 387.56 163.16 390.26 161.67 393.58 161.81 397.48 160.32 400.87 159.54 403.53 158.53 405.09 158.62 
M 367.09 169.11 370.27 168.97 373.06 168.8 376.15 168.64 379.49 168.71 382.43 168.39 385.33 167.44 388.03 166.59 391.33 165.45 394.41 165.5 398.01 166.01 400.94 164.53 403.81 163.79 
M 373.31 171.91 376.47 171.9 379.57 171.37 382.69 171.2 385.68 170.69 388.99 170.73 391.81 169.98 394.1 169.71 396.78 169.38 400.16 169.26 403.04 169.5 405.33 168.17 407.99 167.89 410.82 167.66 414.05 167.5 
M 367.09 174.67 370.41 174.82 373.32 174.84 376.46 174.87 380.13 174.75 383.27 174.53 386.11 174.45 388.83 174.27 391.84 174.56 394.26 174.69 396.34 174.71 398.75 174.75 401.59 173.96 405.54 174.02 409.29 173.29 412.7 173.31 
M 370.44 177.86 373.48 177.75 376.44 177.94 380.35 178.52 383.36 178.47 386.68 178.2 388.94 178.57 391.89 178.36 394.79 178.11 396.44 178.04 398.67 177.95 401.63 177.84 405.57 177.43 
M 403.13 181.91 405.6 182.19 408.06 181.47 410.99 181.49 414.17 182.02 416.25 181.91 419.32 182.79 
M 393.47 186.79 395.5 187.08 
M 387.49 189.82 388.99 189.9 392.42 189.88 395.7 190.76 397.91 192.6 399.78 194.17 403.1 194.32 406.47 193.94 409.1 193.06 411.43 193.31 414.28 192.67 416.39 193.74 418.85 195.14 
M 380.93 193.13 382.08 193.43 385.17 193.92 388.67 194.39 392.08 194.51 395.14 195.92 397.27 197.09 400.15 197.45 403.14 197.91 405.51 198.51 407.13 198.79 409.35 199.61 413.3 199.58 
M 376.51 195.11 379.6 196.18 382.86 197.27 385.12 198.21 388.36 198.86 390.57 199.59 393.54 200.17 396.23 201.06 399.51 202.46 401.73 203.01 404.3 202.61 406.87 204.35 409.57 204.88 412.19 205.38 
M 376.61 198.45 379.59 199.92 382.94 201.23 385.57 201.69 387.75 202.2 390.12 203 393.28 203.81 395.67 204.75 399.21 205.96 402.06 206.53 
M 373.72 200.54 376.61 201.93 379.24 202.87 381.57 204.03 384.48 205.38 387.25 206.28 390.1 207.02 392.97 207.99 396.24 209.09 399.27 210.02 401.83 210.31 404.73 212.16 406.82 213.7 408.76 215.69 411.86 217.12 414.95 217.28 417.84 216.87 420.51 217.68 421.76 218.9 
M 376.12 204.64 378.38 205.9 380.84 207.18 383.72 208.25 386.4 209.12 389 210.58 392.07 212.09 395.06 213.86 397.22 214.55 399.48 214.49 401.81 215.86 404.29 217.9 408.16 219.04 411.38 220.81 413.34 221.94 415.15 223.21 418.6 222.98 421.08 224.6 423.31 226.53 426.25 228.42 428.85 229.84 431.33 230.54 
M 375.66 207.21 377.99 208.69 380.38 210.44 383.05 212.07 385.64 213.79 388.09 214.19 390.97 215.29 393.14 217.07 394.94 218.61 397.66 219.67 399.75 220.31 403.34 221.88 406.23 223.99 408.81 226.64 410.67 227.82 412.53 228.82 415.4 229.64 418.56 230.38 421.47 232.07 423.96 232.92 425.21 234.54 426.97 236.51 429.29 237.98 431.94 238.6 
M 373.06 208.55 375.28 210.17 377.48 211.91 379.94 213.55 382.08 215.59 384.46 216.99 387.69 217.99 390.56 219.39 392.84 221.22 395.45 222.51 397.2 223.54 399.89 224.58 402.1 226.74 404.06 228.9 406.52 231.14 408.83 232.12 410.71 233.3 414.39 234.17 417.65 235.21 420.58 236.6 422.73 238.74 425 240.27 426.87 242.54 
M 311.07 121.36 315.64 125.54 347.31 99.1 350.92 99.9 353.85 100.02 356.45 99.82 361.21 99.03 364.41 99.97 367.47 100.77 370.26 101.31 372.76 101.56 377.81 102.56 380.28 103.29 383.17 105.87 384.04 108.5 384.83 111.05 387.09 116.33 355.96 149.69 353.09 144.09 
M 319.41 124.97 322.69 123.68 324.78 121.73 326.9 119.96 328.94 117.67 330.91 115.81 332.52 114.07 
M 327.53 129.05 330.83 127.37 332.92 125.93 334.75 124.54 337.08 122.89 339.6 121.23 341.58 119.71 343.42 118.59 346.64 116.53 348.67 115.15 
M 335.44 133.52 338.42 132.94 340.88 131.6 343.12 129.94 345.28 127.98 347.13 126.28 349.9 124.48 351.94 122.45 354.71 120.58 356.64 118.61 357.87 117.3 358.49 115.35 359.68 113.02 362.69 110.55 364.86 108.6 367 107.21 
M 339.4 135.76 342.64 135.09 345.29 133.54 347.57 131.79 349.24 130 351.01 128.48 353.01 126.53 355.31 124.82 357.76 123.75 359.73 122.23 361.22 120.51 362.73 118.62 365.04 116.31 367.5 113.52 369.68 111.19 
M 347.19 140.44 350.06 139.87 352.04 139.17 354.67 137.7 357.12 136.04 360.07 134.17 363.19 132.08 365.23 130.73 367.18 129.74 
M 71.37 175.69 72.31 174.64 74.63 172.57 78.29 170.09 83.28 167.92 89.71 166.55 96.55 164.91 103.42 163.4 110.76 161.05 118.29 157.36 125.32 155.04 133.97 152.74 143.3 150.14 152.55 147.03 161.79 144.77 170.38 142.97 178.05 141.42 184.57 140.06 189.45 139.07 192.05 138.53 194.24 143.01 195.64 147.62 197.03 152.22 198.65 156.81 200.12 161.41 200.23 166.12 201.06 170.76 202.05 175.4 202.99 180.04 203.27 184.73 203.22 189.45 203.72 194.13 204.53 198.78 205.21 203.44 205.33 208.14 204.25 212.94 202.98 217.76 201.76 222.57 199.05 227.57 182.42 227.76 170.24 227.39 159.72 226.49 150.12 225.12 141.22 223.33 133.01 220.96 125.21 218.25 117.69 215.21 110.98 211.61 104.22 207.53 97.03 203.7 91.18 199.45 91.12 199.38 
M 72.48 177.62 72.1 177.06 71.37 175.69 
M 168.36 165.22 168.99 169.17 169.1 172.93 168.31 176.51 167.16 179.92 166.73 183.19 166.87 186.2 167.33 189.14 167.96 191.93 168.26 194.62 168.81 197.87 170.13 201.49 170.55 205.65 159.61 206.28 151.63 206.87 144.27 207.18 136.97 207.04 129.75 206.33 122.81 204.77 116.1 202.55 
M 89.64 198.8 89.05 198.24 87.48 196.65 85.75 194.92 84.03 193.24 82.31 191.68 80.67 190.1 79.18 188.37 77.62 186.82 76 185.18 74.56 183.55 73.15 181.93 71.29 178.05 75.18 176.64 76.42 178.52 77.61 180.33 78.96 182.14 80.22 184.02 81.45 185.87 82.65 187.75 83.94 189.61 85.43 191.38 86.93 193.2 88.38 195.09 89.76 196.95 91.38 199.16 
M 90.96 199.91 88.65 199.98 86.33 199.96 84.07 199.9 81.78 199.85 79.39 199.88 77.11 199.93 74.85 199.98 72.69 199.96 70.44 199.92 68.23 199.75 64.02 198.89 64.16 196.64 66.5 194.58 68.57 195.15 70.76 195.65 73.01 196.07 75.23 196.42 77.39 196.77 79.67 197.15 82 197.46 84.3 197.89 86.56 198.36 91.06 199.01 
M 130.09 174.18 129.36 171.41 129.57 168.55 130.69 165.92 132.61 163.79 135.12 162.41 137.94 161.91 140.76 162.35 143.29 163.69 145.25 165.78 146.43 168.39 146.69 171.24 146.02 174.02 144.48 176.43 142.24 178.21 139.54 179.17 136.68 179.2 133.96 178.29 131.68 176.56 130.09 174.18 
M 129.99 173.93 129.64 172.91 129.42 171.86 129.33 170.78 129.37 169.71 129.55 168.64 129.86 167.61 130.29 166.62 130.84 165.7 131.5 164.85 132.27 164.09 133.12 163.42 134.04 162.87 135.03 162.44 136.06 162.13 137.12 161.95 138.2 161.91 139.28 162 140.33 162.22 141.35 162.57 
M 131.67 173.24 131.39 172.43 131.22 171.6 131.14 170.75 131.18 169.89 131.32 169.05 131.39 168.82 
M 133.93 165.09 134.14 164.92 134.87 164.49 135.65 164.15 136.47 163.9 137.31 163.76 138.16 163.73 139.01 163.8 139.85 163.97 140.65 164.25 
M 134.85 172.03 134.56 170.93 134.63 169.93 
M 135.96 167.82 136.86 167.33 137.99 167.13 139.12 167.3 140.13 167.84 140.91 168.67 141.38 169.72 141.49 170.86 141.22 171.97 140.6 172.93 139.71 173.65 138.63 174.03 137.48 174.04 136.4 173.68 135.49 172.99 134.85 172.03 
M 136.37 167.6 136.13 168.07 
M 135.12 170.1 134.61 171.12 
M 137.96 167.13 135.23 172.6 
M 139.22 167.35 136.15 173.49 
M 140.26 167.98 137.27 173.97 
M 141.09 169.06 138.6 174.03 
M 141.43 171.1 140.46 173.05 
M 72.56 174.42 74.89 176.75 
M 75.95 177.81 77.8 179.67 
M 75.54 171.95 80.35 176.76 
M 78.88 169.83 83.89 174.85 
M 82.68 168.18 85.67 171.17 
M 87.06 167.11 91.58 171.63 
M 91.52 166.11 96.6 171.2 
M 95.92 165.06 100.87 170.01 
M 100.38 164.07 105.42 169.12 
M 104.74 162.98 108.45 166.69 
M 108.87 161.66 113.7 166.48 
M 112.74 160.08 115.56 162.89 
M 116.4 158.28 119.51 161.39 
M 120.28 156.7 124.41 160.84 
M 124.38 155.35 128.34 159.31 
M 128.64 154.16 132.16 157.68 
M 132.94 153.01 136.01 156.08 
M 137.22 151.83 140.36 154.97 
M 141.48 150.64 146.66 155.82 
M 145.64 149.35 149.12 152.83 
M 149.72 147.98 152.86 151.11 
M 153.9 146.7 157.46 150.27 
M 158.28 145.63 163.38 150.73 
M 162.68 144.58 167.56 149.45 
M 167.19 143.64 171.65 148.09 
M 171.71 142.7 175.9 146.89 
M 176.25 141.79 179.53 145.07 
M 180.77 140.85 185.18 145.26 
M 185.28 139.91 188.65 143.29 
M 189.81 138.99 193.56 142.74 
M 127.6 163.44 127.53 163.35 127.47 163.24 127.4 163.1 127.34 162.93 127.28 162.72 127.22 162.47 127.16 162.17 127.09 161.85 127.05 161.52 127.04 161.19 127.09 160.86 127.18 160.55 127.34 160.27 127.54 160.02 127.75 159.8 
M 143.64 197.15 143.9 197.95 144.17 198.85 144.42 199.7 144.6 200.43 144.69 201.01 144.74 201.45 144.83 201.74 144.97 201.91 145.15 202.02 145.36 202.1 145.6 202.18 145.85 202.29 146.12 202.45 146.41 202.67 146.68 202.95 
M 161.24 189.5 160.34 190.1 159.53 190.67 158.81 191.19 158.14 191.43 157.46 191.49 156.83 191.46 156.36 191.44 155.95 191.41 155.54 191.31 155.15 191.1 154.85 190.78 154.62 190.4 154.45 189.98 154.39 189.51 154.44 188.98 
M 193.15 207.18 192.18 206.96 191.2 206.99 190.26 207.17 189.49 207.44 188.82 207.87 188.18 208.39 187.55 208.95 186.92 209.48 186.27 209.99 185.67 210.55 185.17 210.92 184.63 211.03 184.06 210.95 183.47 210.65 182.94 210.34 
M 170.38 175.5 171.18 175.83 171.82 176.3 172.32 176.74 172.7 176.99 173 177.15 173.23 177.29 173.4 177.39 173.54 177.46 173.65 177.49 173.73 177.51 173.8 177.52 173.86 177.53 173.91 177.54 173.95 177.54 173.99 177.54 
M 101.16 183.07 100.74 183.75 100.62 184.26 100.56 184.64 100.51 184.94 100.48 185.17 100.46 185.35 100.43 185.48 100.4 185.59 100.35 185.68 100.3 185.74 100.25 185.78 100.2 185.8 100.15 185.81 100.1 185.81 100.05 185.8 
M 176.64 204 176.46 203.87 176.33 203.72 176.25 203.58 176.22 203.46 176.23 203.36 176.25 203.28 176.3 203.22 176.35 203.17 176.41 203.13 176.48 203.1 176.55 203.07 176.62 203.06 176.68 203.04 176.75 203.04 176.81 203.03 
M 165.29 144.04 165.38 144.72 165.44 145.47 165.39 146.13 165.22 146.71 164.9 147.12 164.49 147.43 163.95 147.69 163.32 148.09 162.6 148.64 161.76 149.45 160.8 150.4 159.97 151.59 159.2 152.34 
M 185.79 181.95 185.6 182.29 185.51 182.67 185.52 183.06 185.63 183.49 185.84 183.99 186.19 184.59 186.68 185.18 187.1 185.81 187.48 186.48 188.06 187.07 188.81 187.64 189.67 188.14 190.51 188.61 191.35 189.05 192.08 189.63 
M 159.18 164.42 159.47 164.25 159.83 164.02 160.23 163.75 160.68 163.49 161.17 163.23 161.7 162.95 162.33 162.59 162.9 162.19 163.33 161.94 163.73 161.78 164.11 161.64 164.45 161.57 164.75 161.58 165.04 161.66 165.3 161.77 
M 172.02 184.33 171.4 184.3 170.65 184.4 169.69 184.5 168.63 184.55 167.65 184.34 166.88 183.96 166.3 183.48 165.79 182.88 165.22 182.14 164.58 181.42 163.99 180.71 163.4 180.13 162.83 179.62 162.17 179.13 161.56 178.61 
M 158.07 155 157.76 155.26 157.53 155.45 157.35 155.61 157.19 155.79 157.04 155.98 156.91 156.2 156.81 156.47 156.77 156.77 156.77 157.09 156.79 157.37 156.84 157.61 156.92 157.82 157.05 158.04 157.24 158.27 157.49 158.48 
M 163.89 198.93 163.36 198.64 162.9 198.39 162.43 198.22 161.97 198.16 161.54 198.17 161.11 198.23 160.64 198.31 160.21 198.38 159.86 198.44 159.52 198.52 159.12 198.61 158.58 198.72 157.96 198.83 157.35 198.93 156.78 198.93 
M 171.16 142.81 171.16 142.82 170.99 143.29 170.88 143.77 170.85 144.28 170.83 144.79 170.81 145.3 170.8 145.77 170.75 146.15 170.66 146.45 170.56 146.71 170.45 146.95 
M 114.03 213.24 114.01 213.22 113.49 212.58 112.92 212.05 112.24 211.7 111.48 211.61 110.99 211.62 
M 173.3 189.69 172.98 189.03 172.51 188.41 171.97 187.95 171.27 187.66 170.33 187.5 169.23 187.48 168.02 187.35 166.98 186.94 166.12 186.51 165.42 185.99 164.73 185.37 164.05 184.66 163.44 183.88 162.8 183.21 162.07 182.76 
M 187.18 153.86 187.54 153.77 187.92 153.72 188.3 153.74 188.69 153.78 189.05 153.82 189.39 153.85 189.68 153.88 189.94 153.9 190.15 153.93 190.3 153.95 190.41 153.97 190.49 153.99 190.55 154.01 190.59 154.02 190.61 154.03 
M 180.12 185.71 181.08 185.21 181.94 184.87 182.73 184.63 183.46 184.52 184.1 184.52 184.67 184.67 185.15 184.97 185.65 185.36 186.25 185.8 186.83 186.3 187.37 186.85 188.13 187.33 188.92 187.88 189.79 188.38 190.63 188.86 
M 122.74 204.38 122.85 204.42 122.97 204.47 123.1 204.54 123.24 204.64 123.38 204.74 123.51 204.85 123.64 204.94 123.76 205.02 123.87 205.09 123.97 205.14 124.07 205.2 124.16 205.25 124.25 205.3 124.33 205.35 124.42 205.4 
M 196.93 175.9 197.4 175.82 197.87 175.68 198.33 175.57 198.75 175.5 199.12 175.52 199.44 175.65 199.73 175.87 200.02 176.12 200.3 176.35 200.58 176.52 200.86 176.62 201.13 176.68 201.43 176.7 201.78 176.67 202.18 176.58 
M 192.57 178.41 192.26 178.76 191.98 178.99 191.71 179.17 191.45 179.34 191.21 179.5 190.96 179.66 190.71 179.82 190.47 180 190.25 180.2 190.07 180.42 189.91 180.65 189.77 180.86 189.62 181.05 189.45 181.23 189.23 181.42 
M 130.12 202.21 129.48 201.54 128.83 200.84 128.43 200.21 128.18 199.49 128.07 198.64 127.98 197.82 127.98 196.98 128.04 196.2 128.05 195.62 128.12 195.23 128.2 194.99 128.22 194.83 128.2 194.71 128.16 194.61 128.1 194.53 
M 154.27 153.59 154.07 153.83 153.89 154.02 153.74 154.23 153.65 154.48 153.62 154.78 153.63 155.1 153.7 155.42 153.83 155.75 154.03 156.08 154.24 156.44 154.43 156.78 154.57 157.1 154.66 157.42 154.73 157.74 154.83 158.05 
M 65.71 197.94 65.38 200.47 65.7 202.85 66.55 205.12 67.88 207.19 69.59 208.99 71.63 210.53 73.81 211.9 76.13 212.95 78.57 213.67 81.14 214.11 83.79 214.39 86.44 214.59 89.06 214.63 91.66 214.41 94.26 213.98 96.89 213.43 99.54 212.82 102.19 212.24 107.76 212.12 102.82 214.89 100.14 215.48 97.48 216.09 94.77 216.66 91.99 217.12 89.15 217.35 86.32 217.32 83.54 217.1 80.76 216.81 77.96 216.32 75.17 215.5 72.52 214.3 70.08 212.77 67.78 211.02 65.73 208.87 64.12 206.34 63.05 203.51 62.66 200.48 63 197.6 
M 65.33 197.53 65.28 197.89 
M 64.11 206.33 63.87 208.28 63.58 210.93 63.48 213.54 63.62 216.12 64.09 218.65 64.8 221.17 65.7 223.61 66.81 225.91 68.26 228.02 69.94 230.02 71.78 231.93 73.73 233.78 75.74 235.62 77.74 237.53 79.69 239.56 81.93 244.83 77.65 241.37 75.82 239.46 73.87 237.61 71.87 235.77 69.86 233.86 67.91 231.85 66.09 229.67 64.45 227.28 63.19 224.68 62.2 222.01 61.44 219.27 60.92 216.44 60.75 213.57 60.86 210.73 61.16 207.96 61.5 205.25 61.83 202.53 62.21 199.81 62.64 197.1 
M 65.64 197.56 65.47 197.91 
M 61.47 205.47 60.35 207.26 58.81 209.57 57.23 211.79 55.75 213.99 54.51 216.2 53.76 218.48 53.69 220.8 54.33 223.05 55.58 225.08 57.28 226.79 59.33 228.09 61.62 228.91 64.05 229.24 65.73 229.14 
M 68.72 228.58 68.98 228.52 74.42 227.76 70.5 230.6 
M 67.71 231.61 66.92 231.79 63.95 231.97 60.97 231.56 58.13 230.54 55.57 228.92 53.43 226.76 51.84 224.14 50.98 221.14 51.07 218.02 52.01 215.11 53.42 212.56 54.99 210.23 56.57 208.02 58.06 205.79 59.48 203.51 60.79 201.2 61.99 198.79 62.55 197.67 
M 62.82 197.13 63.2 196.35 
M 91.12 199.38 91.18 199.45 91.36 199.66 91.77 200.14 
M 85.89 195.06 85.86 195.72 86.24 195.43 86.25 195.43 
M 83.44 192.71 83.33 192.9 83.2 193.85 83.68 193.32 83.99 193.2 
M 81.01 190.43 80.77 190.79 80.54 191.99 81.12 191.2 81.59 190.98 
M 78.76 187.95 78.21 188.67 77.88 190.12 78.56 189.09 79.41 188.64 
M 76.42 185.61 75.65 186.56 75.22 188.26 76.01 186.97 77.13 186.33 
M 74.21 183.15 73.09 184.45 72.56 186.39 73.45 184.86 74.92 183.96 
M 72.36 180.28 70.53 182.33 69.9 184.52 70.89 182.75 72.92 181.45 
M 71.51 176.37 67.98 180.22 67.24 182.66 68.33 180.63 71.52 178.53 
M 91.01 199.44 91.18 199.45 91.45 199.47 92.09 199.52 
M 87.55 198.5 87.98 198.27 88.09 198.55 88.12 198.58 
M 84.03 197.84 84.18 197.59 84.77 197.1 84.72 197.63 84.87 198.01 
M 80.56 197.27 80.82 196.67 81.56 195.92 81.36 196.71 81.52 197.4 
M 77.13 196.73 77.45 195.75 78.36 194.75 77.99 195.79 78.17 196.9 
M 73.71 196.18 74.08 194.83 75.15 193.57 74.63 194.87 74.8 196.35 
M 70.32 195.54 70.72 193.91 71.95 192.4 71.26 193.95 71.41 195.77 
M 66.97 194.71 67.35 192.99 68.74 191.22 67.9 193.03 68.02 194.99 
M 62.94 197.19 63.99 192.07 65.54 190.05 64.53 192.11 64.7 196.16 
M 63.85 197.27 64.12 197.39 
M 69.55 199.85 73.96 201.79 78.99 203.79 84.13 205.55 89.45 207.17 94.86 208.58 100.32 209.73 105.7 210.72 110.98 211.61 
M 110.98 211.61 110.98 211.61 
M 80.64 202.38 80.37 202.99 80.13 203.8 80.1 204.17 
M 193.4 137.8 202.14 146.53 
M 198.27 135.4 206.42 143.54 
M 203.22 133.08 210.7 140.55 
M 208.22 130.8 214.13 136.71 
M 213.26 128.57 223.63 138.94 
M 218.28 126.32 225.6 133.64 
M 223.43 124.2 231.33 132.1 
M 228.87 122.37 239.07 132.57 
M 234.8 121.03 245.06 131.29 
M 240.95 119.91 251.51 130.46 
M 247.4 119.09 256.59 128.27 
M 253.99 118.41 260.62 125.04 
M 260.43 117.58 269.51 126.65 
M 267.35 117.23 275.28 125.15 
M 274.57 117.18 280.29 122.9 
M 281.91 117.25 292.11 127.45 
M 289.32 117.38 299.78 127.85 
M 297.08 117.88 306.73 127.52 
M 306.31 119.84 312.1 125.63 
M 318.09 124.34 326.15 132.4 
M 333.36 132.34 343.69 142.67 
M 351.23 142.94 357.51 149.22 
M 369.44 153.88 372.68 157.12 
M 240.98 291.39 239.08 297.7 
M 240.08 294.39 240.86 293.8 241.55 293.5 242.45 293.5 242.95 293.8 243.38 294.39 243.41 295.3 243.23 295.89 242.66 296.8 241.88 297.39 241.19 297.7 240.29 297.7 239.78 297.39 239.36 296.8 
M 246.38 291.39 246.58 291.7 246.98 291.39 246.77 291.1 246.38 291.39 
M 246.05 293.5 244.79 297.7 
M 248.45 293.5 247.19 297.7 
M 248.08 294.7 249.26 293.8 249.95 293.5 250.85 293.5 251.36 293.8 251.39 294.7 250.48 297.7 
M 255.35 293.5 254.66 293.8 253.88 294.39 253.31 295.3 253.13 295.89 253.16 296.8 253.58 297.39 254.08 297.7 254.98 297.7 255.67 297.39 256.45 296.8 257.02 295.89 257.2 295.3 257.17 294.39 256.76 293.8 256.25 293.5 255.35 293.5 
M 259.85 293.5 258.58 297.7 
M 259.49 294.7 260.65 293.8 261.35 293.5 262.25 293.5 262.76 293.8 262.78 294.7 261.89 297.7 
M 262.78 294.7 263.95 293.8 264.64 293.5 265.54 293.5 266.06 293.8 266.08 294.7 265.19 297.7 
M 268.01 295.3 271.61 295.3 271.78 294.7 271.66 294.1 271.45 293.8 270.95 293.5 270.05 293.5 269.36 293.8 268.58 294.39 268.01 295.3 267.83 295.89 267.86 296.8 268.27 297.39 268.78 297.7 269.69 297.7 270.38 297.39 271.15 296.8 
M 274.25 293.5 272.99 297.7 
M 273.89 294.7 275.06 293.8 275.75 293.5 276.64 293.5 277.15 293.8 277.19 294.7 276.28 297.7 
M 279.16 297.1 278.77 297.39 278.99 297.7 279.38 297.39 279.16 297.1 
"/></svg>
